<svg xmlns="http://www.w3.org/2000/svg" viewBox="0 0 550 490"><defs><style>.cls-1{fill:#fff;}.cls-2{fill:#231f20;}</style></defs><g id="Layer_2" data-name="Layer 2"><g id="Layer_1-2" data-name="Layer 1"><rect class="cls-1" width="550" height="490"/><path class="cls-2" d="M386.3,128.42V78.08H375V67H285.54v11.3H274.41V151h-11.3v11.24H246.34V173.3H229.5v11.11H218.29v11.27H195.88v-11.2H184.67V173.27H173.46V151l-10.94-.07v66.77h11v11.59h11.12v11.29h11.21v11.12h11.2V262.9h11.3v44.82h22.23v-11H229.5V285.22h11.11V274.1h11.21V262.9H263v11.29h11.38v33.53h22.5V296.87H285.54v-45h10.93V240.48H308V223.94h11.12V184.28h11.29v11.38h11V173.42H319.06v-22.5H364V139.8H330.35V128.42ZM307.94,94.83H296.73V83.62h11.21Z"/><rect class="cls-2" x="307.97" y="268.82" width="89.18" height="5.14"/><rect class="cls-2" x="380.79" y="302.22" width="5.5" height="5.5"/><rect class="cls-2" x="150.85" y="268.59" width="45.06" height="5.6"/><rect class="cls-2" x="184.7" y="290.77" width="22.41" height="5.6"/><rect class="cls-2" x="150.85" y="307.72" width="22.41" height="5.6"/><path class="cls-2" d="M149.42,375v7.91a1,1,0,0,1-.93.93H145v10.9a1,1,0,0,1-.93.93H136.2a.91.91,0,0,1-.93-.93v-10.9H123.63a2.36,2.36,0,0,1-1.72-.73l-3.73-3.72a2.44,2.44,0,0,1-.73-1.73h.07a.24.24,0,0,1-.07-.14V350.36a1,1,0,0,1,1-.93h7.84a1,1,0,0,1,.93.93v22.33a.93.93,0,0,0,.2.47l.93.93h6.92V350.36a.91.91,0,0,1,.93-.93h7.91a1,1,0,0,1,.93.93v23.73h3.45A1,1,0,0,1,149.42,375Z"/><path class="cls-2" d="M188,355.34c0,.07.06.07.06.14v34a2.28,2.28,0,0,1-.73,1.66L183.65,395a2.16,2.16,0,0,1-1.73.66H164.71A2.16,2.16,0,0,1,163,395l-3.72-3.72a2.25,2.25,0,0,1-.67-1.73.21.21,0,0,0-.06-.13v-34h.06a2.17,2.17,0,0,1,.67-1.72l3.72-3.73a2.44,2.44,0,0,1,1.73-.73h17.21a2.44,2.44,0,0,1,1.73.73l3.72,3.73a2.36,2.36,0,0,1,.73,1.72Zm-9.91,4.92L177,359.13a.91.91,0,0,0-.46-.2h-6.45a.88.88,0,0,0-.46.2l-1.07,1.13a.64.64,0,0,0-.26.47v23.79a.56.56,0,0,0,.26.4l.87.93h7.77l.93-.93a.67.67,0,0,0,.2-.4V360.73A.73.73,0,0,0,178.13,360.26Z"/><path class="cls-2" d="M228.91,375v7.91a1,1,0,0,1-.93.93h-3.46v10.9a1,1,0,0,1-.93.93h-7.91a.91.91,0,0,1-.93-.93v-10.9H203.12a2.39,2.39,0,0,1-1.73-.73l-3.72-3.72a2.39,2.39,0,0,1-.73-1.73H197a.24.24,0,0,1-.07-.14V350.36a1,1,0,0,1,1-.93h7.84a1,1,0,0,1,.93.93v22.33a.93.93,0,0,0,.2.47l.93.93h6.91V350.36a.91.91,0,0,1,.93-.93h7.91a1,1,0,0,1,.93.93v23.73H228A1,1,0,0,1,228.91,375Z"/><path class="cls-2" d="M269,367.57h11.77a.91.91,0,0,1,.93.93v7.91a.91.91,0,0,1-.93.94H269v8.57h15.36a1,1,0,0,1,.93.93v7.91a1,1,0,0,1-.93.93h-24.2a.91.91,0,0,1-.93-.93v-44.6a.91.91,0,0,1,.93-.93h24.2a1,1,0,0,1,.93.93v7.91a1,1,0,0,1-.93.93H269Z"/><path class="cls-2" d="M321.22,372.43a2.14,2.14,0,0,1-.66,1.72l-3.79,3.79-.2.14,6.78,16.68c.13.47-.46.93-.93.93h-8.91a1.43,1.43,0,0,1-1.19-.93l-6.52-16.15h-3.05v16.15a1,1,0,0,1-.93.93h-7.91a1,1,0,0,1-.93-.93v-44.6a1,1,0,0,1,.93-.93H315a2.2,2.2,0,0,1,1.73.66l3.79,3.79a2.39,2.39,0,0,1,.66,1.86Zm-18.47-3.59h7a.63.63,0,0,0,.47-.2l1.06-1.07a.58.58,0,0,0,.2-.53v-6.25a.58.58,0,0,0-.2-.53l-1.06-1.06a.58.58,0,0,0-.53-.2h-6.91Z"/><path class="cls-2" d="M357.51,372.43a2.18,2.18,0,0,1-.66,1.72l-3.79,3.79-.2.14,6.78,16.68c.13.47-.47.93-.93.93H349.8a1.45,1.45,0,0,1-1.2-.93l-6.51-16.15H339v16.15a1,1,0,0,1-.93.93h-7.91a1,1,0,0,1-.93-.93v-44.6a1,1,0,0,1,.93-.93h21.14a2.2,2.2,0,0,1,1.73.66l3.79,3.79a2.43,2.43,0,0,1,.66,1.86ZM339,368.84h7a.63.63,0,0,0,.47-.2l1.06-1.07a.58.58,0,0,0,.2-.53v-6.25a.58.58,0,0,0-.2-.53l-1.06-1.06a.6.6,0,0,0-.54-.2H339Z"/><path class="cls-2" d="M394.6,389.51a2.19,2.19,0,0,1-.67,1.73L390.14,395a2.28,2.28,0,0,1-1.66.73H371.27a2.38,2.38,0,0,1-1.73-.73l-3.72-3.72a2.42,2.42,0,0,1-.74-1.73v-34.1a2.42,2.42,0,0,1,.74-1.73l3.72-3.72a2.11,2.11,0,0,1,1.73-.73h17.14a2.12,2.12,0,0,1,1.73.73l3.79,3.72a2.19,2.19,0,0,1,.67,1.73Zm-18-30.51a.46.46,0,0,0-.4.2l-1.13,1.06a1,1,0,0,0-.2.53v23.73a.9.9,0,0,0,.2.47l.93.93h7.71l.94-.93a.57.57,0,0,0,.19-.47V360.79a.59.59,0,0,0-.19-.53l-1.07-1.06a.62.62,0,0,0-.46-.2Z"/><path class="cls-2" d="M430.09,372.43a2.17,2.17,0,0,1-.67,1.72l-3.79,3.79-.2.14,6.78,16.68c.14.47-.46.93-.93.93h-8.9a1.43,1.43,0,0,1-1.2-.93l-6.51-16.15h-3.06v16.15a1,1,0,0,1-.93.93h-7.91a1,1,0,0,1-.93-.93v-44.6a1,1,0,0,1,.93-.93H423.9a2.2,2.2,0,0,1,1.73.66l3.79,3.79a2.42,2.42,0,0,1,.67,1.86Zm-18.48-3.59h7a.62.62,0,0,0,.46-.2l1.07-1.07a.61.61,0,0,0,.2-.53v-6.25a.61.61,0,0,0-.2-.53l-1.07-1.06a.58.58,0,0,0-.53-.2h-6.91Z"/><path class="cls-2" d="M203.49,408V436.1a.57.57,0,0,1-.59.59h-5a.58.58,0,0,1-.59-.59V408a.58.58,0,0,1,.59-.59h5A.57.57,0,0,1,203.49,408Z"/><path class="cls-2" d="M209.6,407.21h5a.61.61,0,0,1,.63.59v5.69h0c0,.29-.17.46-.55.63l-4.84,2c-.51.21-.72,0-.76-.38V407.8A.58.58,0,0,1,209.6,407.21Z"/><path class="cls-2" d="M244.3,436.1a.57.57,0,0,1-.59.59h-5a.61.61,0,0,1-.63-.59l-.17-10.65-3.24,10.74a.92.92,0,0,1-.76.59h-3.37a1.06,1.06,0,0,1-.8-.59l-3.2-10.74-.21,10.65a.57.57,0,0,1-.59.59h-5a.6.6,0,0,1-.59-.59L221.31,408v-.13a.62.62,0,0,1,.25-.37s0,0,.09-.05a.15.15,0,0,0,.12,0h5.35c.34,0,.51.21.63.55l3.79,16.26.47,3.53.33-3.53,4.43-16.26a.59.59,0,0,1,.63-.55h5.35a.15.15,0,0,0,.12,0c0,.05,0,.05,0,.05a.63.63,0,0,1,.26.37v.09a0,0,0,0,1,0,0Z"/><path class="cls-2" d="M280.61,431.09v5a.61.61,0,0,1-.63.59H263.13a.61.61,0,0,1-.63-.59V407.84h0a.61.61,0,0,1,.59-.46h5a.59.59,0,0,1,.59.46V430.5H280A.64.64,0,0,1,280.61,431.09Z"/><path class="cls-2" d="M303.86,432.78a1.39,1.39,0,0,1-.42,1.09l-2.4,2.36a1.42,1.42,0,0,1-1.05.46H289.08a1.5,1.5,0,0,1-1.1-.46l-2.36-2.36a1.52,1.52,0,0,1-.46-1.09V411.17a1.52,1.52,0,0,1,.46-1.09l2.36-2.36a1.33,1.33,0,0,1,1.1-.46h10.86a1.33,1.33,0,0,1,1.1.46l2.4,2.36a1.39,1.39,0,0,1,.42,1.09Zm-11.41-19.33a.3.3,0,0,0-.26.12l-.71.68a.57.57,0,0,0-.13.33v15a.51.51,0,0,0,.13.29l.59.59H297l.59-.59a.34.34,0,0,0,.13-.29v-15a.36.36,0,0,0-.13-.33l-.67-.68a.41.41,0,0,0-.3-.12Z"/><path class="cls-2" d="M327.32,411.17l0,0v4.34a.61.61,0,0,1-.63.59h-5a.57.57,0,0,1-.59-.59v-2.1H316a.37.37,0,0,0-.3.12l-.67.68a.49.49,0,0,0-.17.33V418l0,0a.39.39,0,0,0,.13.34l.59.59h7.87a1.33,1.33,0,0,1,1.1.46l2.36,2.36a1.55,1.55,0,0,1,.46,1.1v10a1.52,1.52,0,0,1-.46,1.09l-2.36,2.36a1.5,1.5,0,0,1-1.1.46h-10.9a1.5,1.5,0,0,1-1.1-.46l-2.36-2.36a1.39,1.39,0,0,1-.42-1.09.19.19,0,0,1,0-.09v-4.08a.61.61,0,0,1,.63-.59h5a.57.57,0,0,1,.59.59v1.89h5.31c.08,0,.12,0,.21-.12l.71-.68a.6.6,0,0,0,.13-.33v-3.16a.61.61,0,0,0-.13-.34l-.71-.67c-.09-.09-.13-.13-.21-.13h-7.58a1.55,1.55,0,0,1-1.1-.46l-2.36-2.36a1.41,1.41,0,0,1-.42-1.1h0v-10h0a1.39,1.39,0,0,1,.42-1.09l2.36-2.36a1.33,1.33,0,0,1,1.1-.46h10.9a1.33,1.33,0,0,1,1.1.46l2.36,2.36a1.52,1.52,0,0,1,.46,1.09Z"/><path class="cls-2" d="M350.23,408v5a.61.61,0,0,1-.63.59h-5.35v22.66a.59.59,0,0,1-.59.5h-5a.59.59,0,0,1-.59-.5V413.53h-5.35a.61.61,0,0,1-.63-.59v-5a.65.65,0,0,1,.63-.63H349.6A.64.64,0,0,1,350.23,408Z"/></g></g></svg>