<svg xmlns="http://www.w3.org/2000/svg" width="46" height="64" viewBox="0 0 46 64"><g fill="none" fill-rule="evenodd" stroke="#0CC" stroke-linecap="round" stroke-linejoin="round" transform="translate(1.888 1.998)"><path stroke-width="1.875" d="M22.557,59.1281111 L22.557,51.5751111 C22.369,51.5481111 22.183,51.5201111 21.999,51.4901111 C18.496,50.9181111 15.575,49.8561111 13.071,48.2431111 C12.935,48.1551111 12.802,48.0621111 12.661,47.9641111 L11.877,47.4271111 L15.534,39.0561111 L16.139,39.1191111 C16.354,39.1261111 16.548,39.2041111 16.705,39.3481111 C17.266,39.8611111 17.971,40.2821111 18.921,40.6701111 L19.019,40.7101111 C20.52,41.3241111 21.94,41.9021111 23.46,42.1971111 C24.386,42.3751111 25.341,42.4661111 26.295,42.4661111 C26.672,42.4661111 27.049,42.4521111 27.428,42.4251111 C28.488,42.3501111 29.325,42.2001111 30.063,41.9541111 C30.622,41.7671111 31.095,41.5131111 31.51,41.1781111 C32.12,40.6851111 32.491,39.8501111 32.479,39.0001111 C32.47,38.4031111 32.267,37.5441111 31.349,36.8471111 C30.644,36.3121111 29.798,35.8511111 28.687,35.3971111 C27.989,35.1121111 27.288,34.8351111 26.587,34.5571111 C25.663,34.1921111 24.739,33.8251111 23.822,33.4431111 C21.427,32.4421111 19.404,31.2641111 17.635,29.8401111 C15.852,28.4021111 14.623,26.7831111 13.879,24.8911111 C13.364,23.5821111 13.088,22.1881111 13.037,20.6301111 C12.969,18.6301111 13.218,16.8701111 13.797,15.2531111 C14.853,12.3051111 16.847,10.0561111 19.725,8.56811111 C20.598,8.11711111 21.524,7.75711111 22.546,7.47211111 L22.547,0.380111111 L31.799,0.380111111 L31.799,7.35011111 C35.249,7.83611111 38.002,8.77311111 40.415,10.2791111 L41.039,10.6691111 L37.145,19.0891111 L36.334,18.5411111 C35.445,17.9411111 34.486,17.4541111 33.401,17.0511111 C31.716,16.4261111 30.007,16.1091111 28.32,16.1091111 C28.064,16.1091111 27.808,16.1161111 27.551,16.1301111 C26.343,16.1981111 25.474,16.4081111 24.737,16.8121111 C23.909,17.2641111 23.392,17.8191111 23.154,18.5081111 C22.736,19.7171111 23.021,20.7691111 24.004,21.6321111 C24.655,22.2051111 25.456,22.6701111 26.599,23.1401111 C27.289,23.4241111 27.982,23.6981111 28.676,23.9721111 C29.504,24.2991111 30.332,24.6261111 31.153,24.9711111 C33.607,26.0001111 35.405,26.9481111 36.983,28.0411111 C38.506,29.0971111 39.666,30.2401111 40.531,31.5351111 C41.469,32.9421111 42.039,34.5171111 42.225,36.2181111 C42.496,38.6931111 42.243,41.0501111 41.472,43.2231111 C40.371,46.3291111 38.168,48.5791111 34.924,49.9121111 C33.954,50.3101111 32.931,50.6161111 31.805,50.8441111 L31.805,59.1291111 L22.557,59.1291111 L22.557,59.1281111 Z"/><path stroke-width="2.5" d="M10.756,58.8441111 C10.756,56.5421111 10.756,54.2781111 10.756,51.9811111 C6.823,51.3441111 3.188,50.0221111 -3.55271368e-15,47.5551111 C0.243,46.9781111 0.482,46.4101111 0.722,45.8421111 C1.736,43.4391111 2.753,41.0371111 3.761,38.6311111 C3.847,38.4251111 3.949,38.3441111 4.181,38.3441111 C7.943,38.3521111 11.704,38.3501111 15.466,38.3481111 C15.621,38.3481111 15.758,38.3451111 15.865,38.5001111 C16.443,39.3451111 17.273,39.8621111 18.195,40.2511111 C18.597,40.4211111 19.007,40.5721111 19.405,40.7511111 C19.58,40.8301111 19.681,40.7761111 19.8,40.6521111 C20.477,39.9461111 20.512,38.7331111 19.868,37.9381111 C19.383,37.3391111 18.75,36.9241111 18.062,36.6181111 C16.756,36.0351111 15.437,35.4781111 14.107,34.9531111 C11.903,34.0821111 9.738,33.1371111 7.738,31.8501111 C6.243,30.8881111 4.857,29.8031111 3.722,28.4191111 C2.342,26.7351111 1.508,24.8141111 1.201,22.6621111 C0.843,20.1571111 1.01,17.6961111 1.87,15.3041111 C2.906,12.4201111 4.819,10.2911111 7.504,8.84211111 C8.518,8.29511111 9.591,7.89411111 10.74,7.57811111 C10.74,5.64811111 10.74,3.71211111 10.74,1.75711111 C11.293,1.65011111 11.81,1.54911111 12.327,1.45111111 C14.781,0.987111111 17.234,0.523111111 19.689,0.0641111111 C19.897,0.0251111111 20.112,0.00411111111 20.324,0.00311111111 C23.974,-0.000888888889 27.624,0 31.274,0 C31.403,0 31.532,0 31.706,0 C31.706,0.169111111 31.706,0.297111111 31.706,0.426111111 C31.706,2.54111111 31.706,4.65511111 31.706,6.77011111 C31.706,7.07611111 31.708,7.07611111 32.013,7.12711111 C34.208,7.49311111 36.327,8.10711111 38.337,9.07311111 C39.3,9.53611111 40.207,10.0921111 41.067,10.7611111 C40.913,11.0981111 40.765,11.4301111 40.612,11.7601111 C39.457,14.2571111 38.298,16.7521111 37.153,19.2531111 C37.044,19.4921111 36.92,19.5751111 36.656,19.5751111 C32.945,19.5661111 29.234,19.5671111 25.523,19.5731111 C25.301,19.5731111 25.136,19.5241111 24.997,19.3451111 C24.552,18.7721111 23.921,18.4641111 23.239,18.1361111 C23.147,18.3741111 23.041,18.5901111 22.979,18.8181111 C22.697,19.8691111 22.927,20.7591111 23.803,21.4591111 C24.598,22.0951111 25.502,22.5321111 26.429,22.9211111 C28.001,23.5801111 29.59,24.1991111 31.158,24.8691111 C33.094,25.6961111 34.974,26.6351111 36.703,27.8501111 C38.352,29.0091111 39.767,30.3901111 40.766,32.1621111 C41.599,33.6381111 42.05,35.2261111 42.172,36.9111111 C42.321,38.9661111 42.158,40.9931111 41.568,42.9711111 C40.407,46.8631111 37.833,49.4261111 34.08,50.8621111 C33.701,51.0071111 33.314,51.1311111 32.926,51.2501111 C32.539,51.3691111 32.146,51.4691111 31.713,51.5891111 C31.713,54.3701111 31.713,57.1591111 31.713,59.9761111 C31.563,59.9851111 31.455,59.9961111 31.347,59.9961111 C28.409,59.9971111 25.47,60.0091111 22.532,59.9881111 C21.834,59.9831111 21.136,59.8751111 20.438,59.8071111 C19.306,59.6971111 18.174,59.5811111 17.042,59.4681111 C15.698,59.3341111 14.354,59.1991111 13.009,59.0651111 C12.273,58.9941111 11.536,58.9211111 10.756,58.8441111 Z"/><line x1="22.547" x2="10.74" y1="7.473" y2="7.58" stroke-width="1.875"/><line x1="11.876" y1="47.427" y2="47.555" stroke-width="1.875"/></g></svg>