<svg xmlns="http://www.w3.org/2000/svg" width="43" height="76" viewBox="0 0 43 76"><g fill="#0CC" transform="translate(.059 .875)"><path d="M15.367,0 C23.8536535,0 30.734,6.8800128 30.734,15.367 C30.734,20.7090554 27.9849474,25.5814776 23.5489006,28.377706 C23.0232879,28.7090219 22.32861,28.5515133 21.997294,28.0259006 C21.6659781,27.5002879 21.8234867,26.80561 22.3490994,26.474294 C26.1381699,24.0858822 28.484,19.9281318 28.484,15.367 C28.484,8.12267792 22.6110372,2.25 15.367,2.25 C8.12296275,2.25 2.25,8.12267792 2.25,15.367 C2.25,20.1011263 4.77891154,24.3942414 8.80206281,26.7256254 C9.33964277,27.0371487 9.52289791,27.7254829 9.21137462,28.2630628 C8.89985133,28.8006428 8.21151715,28.9838979 7.67393719,28.6723746 C2.96335224,25.9426283 -3.55271368e-15,20.9120007 -3.55271368e-15,15.367 C-3.55271368e-15,6.8800128 6.88034649,0 15.367,0 Z"/><path d="M15.367,3.561 C21.8789915,3.561 27.174,8.85635075 27.174,15.368 C27.174,18.7589232 25.7287328,21.9245368 23.2497148,24.1509885 C22.7874588,24.5661492 22.0761721,24.5279708 21.6610115,24.0657148 C21.2458508,23.6034588 21.2840292,22.8921721 21.7462852,22.4770115 C23.7553806,20.6726059 24.924,18.1129425 24.924,15.368 C24.924,10.0989589 20.6363182,5.811 15.367,5.811 C10.0976818,5.811 5.81,10.0989589 5.81,15.368 C5.81,18.1126437 6.97936684,20.6733791 8.98871482,22.4780115 C9.45097083,22.8931721 9.48914918,23.6044588 9.07398855,24.0667148 C8.65882792,24.5289708 7.94754119,24.5671492 7.48528518,24.1519885 C5.0060633,21.9253538 3.56,18.7586953 3.56,15.368 C3.56,8.85635075 8.85500854,3.561 15.367,3.561 Z"/><path d="M10.26904,18.0465266 C11.3027913,12.3421253 19.9011385,12.8886138 20.3029722,18.7638671 L20.3161183,21.6224242 L20.3212391,24.51772 L20.319,30.136 L20.3366332,30.1287957 C22.7874424,29.0813034 26.0593124,29.9145078 27.1871564,32.6275386 L27.274,32.855 L27.3993391,32.7924766 C29.9252328,31.5710484 33.4607099,32.4087395 34.5487471,35.5122792 L34.6222551,35.7378169 L34.651,35.841 L34.6936126,35.8170174 C37.4441909,34.3384511 40.9693709,35.8044133 41.8886118,38.8027152 L41.9459967,39.0048567 L41.9944701,39.2070042 L42.0245575,39.4116409 L42.059269,39.8822365 L42.1193234,40.8272629 L42.1674781,41.7890565 C42.1816253,42.1140026 42.1939076,42.444074 42.2044432,42.7816013 L42.2309287,43.8188814 C42.234509,43.9962663 42.2376824,44.1760978 42.2404634,44.3586673 L42.2525607,45.4892707 L42.2553007,46.0835842 L42.2511023,48.043462 L42.242473,49.1150736 L42.1979061,53.5970344 L42.1946834,54.3616783 L42.1942879,55.0790195 C42.1949063,55.4858905 42.1970324,55.8744413 42.2007792,56.2548637 L42.2169948,57.3819379 C42.2054179,61.791707 40.8912437,65.4330183 38.2415604,68.3762782 L37.9626899,68.6782662 C34.8322071,72.1828773 28.91196,74.5222068 23.6432792,74.6186227 L23.2589787,74.6216591 C14.5443506,74.8074895 7.05883298,67.8109692 4.5073909,58.5592902 L3.56895264,55.8119226 L2.51470994,52.6544246 L1.13167,48.4578515 C-0.0894591684,45.0866273 2.35445986,41.460821 5.92085093,41.5270392 C7.77429431,41.5404473 9.00081972,42.1693823 9.94037714,43.4856425 L10.0726842,43.6783631 L10.132,43.772 L10.1294674,40.6922711 L10.1192261,38.765826 L10.0709858,32.3944802 L10.0579048,28.9857922 L10.0629682,26.4597282 L10.0786497,24.5983896 L10.1055796,22.8431347 L10.144598,21.1610048 L10.196545,19.5190414 L10.2463551,18.250254 L10.26904,18.0465266 Z M13.2547723,18.427898 L13.238,18.499 L13.1945451,19.628907 L13.1417434,21.3082359 L13.1025803,23.0334912 L13.0816101,24.3793756 L13.0615246,26.7667613 L13.0578095,28.8472659 L13.0748067,32.969321 L13.1232427,39.4075754 L13.1336026,42.4909311 L13.1310949,44.1803607 L13.1165841,46.2854223 L13.1042247,47.2875388 L13.0882741,48.2636337 L13.045034,50.1605225 L13.0021256,51.557209 C12.9503141,53.0739746 10.9367104,53.5633231 10.1945761,52.2395033 C9.92371164,51.7563349 9.71539689,51.2788241 9.49170451,50.6297957 L9.33944292,50.1697557 L9.17749397,49.6472298 L8.74311919,48.1740865 L8.57836581,47.6482443 C8.55120442,47.5646549 8.52417011,47.4830666 8.49723039,47.4034426 L8.33646699,46.9489763 C7.66918163,45.1511322 7.02038002,44.5350533 5.88219413,44.5267423 C4.49615256,44.5010444 3.50375371,45.9015764 3.91695234,47.3250208 L6.19883418,54.2220867 L7.37089281,57.6697582 C9.58151959,65.6757578 15.8170592,71.5939526 22.9031454,71.6247764 L23.2307879,71.6220048 C27.6967932,71.6332826 32.844115,69.6937926 35.5361417,66.8838965 L35.7547264,66.6477468 C38.0788599,64.1928529 39.206981,61.192358 39.2172762,57.4067826 C39.2100756,57.0315927 39.2046332,56.6572805 39.2008337,56.2738978 L39.1942483,55.0865894 L39.1979042,53.5864541 L39.2124974,51.8481727 L39.2511027,48.0339212 L39.2554371,47.0464622 L39.2554371,46.1158281 L39.2480221,44.9744932 C39.2460917,44.7907502 39.2437964,44.6100584 39.2411225,44.4321352 L39.2204237,43.3955584 C39.2161796,43.227579 39.2115291,43.0618029 39.2064583,42.8979475 L39.1708798,41.9356008 C39.1640726,41.7782971 39.1568174,41.6223488 39.1491004,41.467473 L39.0971458,40.5488286 L39.042,39.766 L39.0265845,39.7036959 C38.677609,38.5335487 37.307892,37.9224492 36.2157242,38.4124755 L36.0807427,38.479503 L35.9542038,38.5549884 C35.3635111,38.9262463 35.0519447,39.4894364 34.9257832,40.4022783 L34.8999175,40.6192127 L34.8871495,40.7633526 C34.8578584,41.0940248 34.7488022,41.3634887 34.5885061,41.5731009 C34.726489,41.7553267 34.8235326,41.9840951 34.8617404,42.2579091 L34.876806,42.4149 L34.9544062,43.8432689 L34.9778513,44.3661114 L34.9912933,44.822511 C35.0022407,45.3929092 34.9846739,45.8230893 34.9312365,46.2609022 L34.8843178,46.5930031 C34.5981011,48.3894965 31.9606277,48.2221731 31.9037338,46.4039125 L31.8854153,45.6733681 L31.8752014,44.903307 C31.8741279,44.7694886 31.8733571,44.6323874 31.8728715,44.4911851 L31.879013,42.4897594 C31.8806219,42.1030457 31.9962319,41.7904619 32.1812184,41.5531223 C32.0268695,41.3493435 31.9235091,41.091187 31.8987407,40.7806081 L31.8930336,40.6209591 L31.8951789,39.9189538 L31.8860261,38.6808975 L31.8701858,37.9353525 C31.8668437,37.8153064 31.86314,37.697144 31.8590589,37.5805322 L31.833,36.98 L31.8145629,36.8708013 C31.3392871,34.6114605 27.9801044,34.779975 27.7059381,37.0626792 L27.691682,37.2293208 L27.676918,37.893426 L27.6709115,38.4349376 L27.6715892,39.6523664 L27.6811149,41.4794292 L27.6790965,42.4611034 L27.6732079,42.9107321 L27.6633701,43.3164051 L27.6443873,43.8085384 C27.5549719,45.7352269 24.6969363,45.7063175 24.6465127,43.7782145 L24.6378684,43.4080662 L24.6275694,42.6705653 L24.6277842,41.4442331 L24.6522063,38.8953819 L24.6564917,38.1393053 L24.6562016,37.4483978 L24.6532419,37.0191657 L24.6400774,36.2229497 L24.6163556,35.4904027 C24.6114624,35.3723288 24.6060843,35.2559412 24.6001991,35.1407569 L24.5586219,34.4602242 L24.538,34.204 L24.5136565,34.0849307 C24.0449175,32.2712791 21.1376096,32.2227039 20.5405599,33.8785731 L20.4927791,34.0338005 L20.4593039,34.1935754 L20.3839393,34.9852022 L20.3591524,35.3643967 L20.3406378,35.743964 L20.3189915,36.4919425 L20.3359915,41.5339425 C20.3427256,43.5312112 17.3481981,43.5453831 17.3360278,41.5481401 L17.3217853,38.339956 L17.3178752,35.9971841 L17.3162688,21.293447 L17.3065475,18.8761013 C17.1533193,16.6520882 13.787187,16.3854248 13.2547723,18.427898 Z"/></g></svg>