<svg xmlns="http://www.w3.org/2000/svg" width="76" height="76" viewBox="0 0 76 76"><g fill="none" transform="translate(.5 .5)"><path fill="#0CC" d="M37.5,0 C16.7893219,0 0,16.7893219 0,37.5 C0,58.2106781 16.7893219,75 37.5,75 C58.2106781,75 75,58.2106781 75,37.5 C75,16.7893219 58.2106781,0 37.5,0 Z M37.5,3 C56.5538239,3 72,18.4461761 72,37.5 C72,56.5538239 56.5538239,72 37.5,72 C18.4461761,72 3,56.5538239 3,37.5 C3,18.4461761 18.4461761,3 37.5,3 Z"/><path fill="#0CC" d="M37.5,4.375 C19.2055677,4.375 4.375,19.2055677 4.375,37.5 C4.375,55.7944323 19.2055677,70.625 37.5,70.625 C55.7944323,70.625 70.625,55.7944323 70.625,37.5 C70.625,19.2055677 55.7944323,4.375 37.5,4.375 Z M37.5,6.625 C54.5517917,6.625 68.375,20.4482083 68.375,37.5 C68.375,54.5517917 54.5517917,68.375 37.5,68.375 C20.4482083,68.375 6.625,54.5517917 6.625,37.5 C6.625,20.4482083 20.4482083,6.625 37.5,6.625 Z"/><path fill="#0CC" d="M25.273 20.703C26.472 20.708 27.523 20.848 28.25 21.102 29.729 21.61 29.729 21.61 30.071 24.096 30.464 26.949 32.129 29.703 32.86 30.799 31.781 31.025 30.779 31.512 29.936 32.227 29.857 32.165 29.773 32.108 29.687 32.057L29.613 32.008C29.537 31.957 29.453 31.9 29.382 31.855 28.247 31.125 27.361 31.096 26.572 31.07 25.841 31.047 25.15 31.026 23.964 30.463 22.572 29.803 21.739 28.706 21.252 27.766 22.121 28.314 23.049 28.883 23.417 29.05 23.44 29.061 23.464 29.071 23.487 29.081 23.759 29.194 24.08 29.256 24.374 29.256 25.588 29.256 26.727 28.381 27.859 26.577 29.128 24.547 28.55 22.741 27.414 21.852 27.267 21.737 27.107 21.641 26.939 21.567 26.753 21.475 26.033 21.105 25.273 20.703M25.206 18.453C24.387 18.453 23.733 18.51 23.47 18.556 23.069 18.626 21.744 18.94 21.548 20.046 21.478 20.437 21.513 21.18 22.541 21.775 23.613 22.396 26.001 23.624 26.027 23.624 26.094 23.677 26.701 24.185 25.951 25.385 25.08 26.773 24.521 27.007 24.374 27.007 24.362 27.007 24.352 27.005 24.346 27.003 23.997 26.845 22.319 25.793 20.854 24.841 20.691 24.747 20.274 24.535 19.796 24.535 19.526 24.535 19.238 24.603 18.964 24.797 18.671 25.008 18.214 25.518 18.434 26.561 18.583 27.261 19.5 30.838 22.998 32.498 24.609 33.263 25.658 33.295 26.502 33.321 27.179 33.343 27.551 33.355 28.163 33.749 28.312 33.844 28.482 33.966 28.547 33.999L29.944 35.367C30.657 34.654 31.112 34.2 31.166 34.149 31.992 33.349 33.088 32.908 34.245 32.908 34.725 32.908 35.2 32.986 35.651 33.135L36.983 31.803 35.23 30.134 34.996 29.935C34.973 29.904 32.717 26.812 32.301 23.791 31.85 20.511 31.393 19.804 28.982 18.976 27.809 18.565 26.347 18.453 25.206 18.453L25.206 18.453ZM44.337 41.906 53.838 50.948C53.869 50.983 53.901 51.018 53.934 51.051 54.585 51.705 54.519 52.832 53.783 53.567 53.413 53.938 52.935 54.143 52.438 54.143 52.113 54.143 51.636 54.056 51.202 53.642 51.2 53.64 51.199 53.639 51.197 53.637L42.975 44.995C43.696 44.087 44.158 43.023 44.337 41.906M43.433 37.939 41.945 39.428C42.452 40.969 42.097 42.708 40.934 43.915 40.898 43.952 40.468 44.383 39.816 45.035L41.198 46.389 49.568 55.187C49.586 55.206 49.6 55.224 49.621 55.241 50.412 56.01 51.423 56.392 52.439 56.392 53.497 56.392 54.557 55.977 55.377 55.154 57.012 53.522 57.047 50.988 55.529 49.463 55.488 49.41 55.441 49.363 55.391 49.319L43.433 37.939 43.433 37.939Z"/><path fill="#0CC" d="M54.348,19.738 L55.34,20.73 L53.355,23.707 C52.874,23.888 52.338,24.106 52.021,24.25 C51.776,24.362 51.553,24.516 51.362,24.707 L38.541,37.53 C37.77,38.301 37.663,39.515 38.287,40.409 C38.482,40.688 38.458,41.076 38.233,41.31 C37.901,41.652 29.621,49.925 27.307,52.236 L24.33,55.213 C24.194,55.349 24.027,55.418 23.834,55.418 C23.641,55.418 23.475,55.349 23.338,55.212 L19.865,51.739 C19.728,51.603 19.659,51.436 19.659,51.242 C19.659,51.052 19.729,50.881 19.865,50.746 C25.284,45.323 33.459,37.144 33.765,36.845 C33.895,36.72 34.061,36.654 34.245,36.654 C34.39,36.654 34.545,36.704 34.67,36.791 C35.059,37.062 35.509,37.195 35.956,37.195 C36.536,37.195 37.112,36.971 37.548,36.536 L50.371,23.713 C50.561,23.523 50.716,23.299 50.828,23.054 C50.972,22.737 51.19,22.202 51.372,21.721 L54.348,19.738 M54.347,17.488 C53.915,17.488 53.481,17.612 53.1,17.866 L50.123,19.851 C49.731,20.112 49.431,20.49 49.265,20.932 C49.099,21.372 48.9,21.862 48.78,22.124 L35.958,34.947 C35.459,34.599 34.858,34.406 34.246,34.406 C33.479,34.406 32.755,34.697 32.205,35.226 C31.921,35.5 20.55,46.879 18.274,49.158 C17.717,49.713 17.41,50.455 17.41,51.244 C17.41,52.033 17.718,52.775 18.276,53.333 L21.748,56.804 C22.305,57.361 23.046,57.668 23.835,57.668 C24.624,57.668 25.365,57.361 25.922,56.803 L28.899,53.826 C29.99,52.736 39.573,43.162 39.852,42.872 C40.839,41.848 40.929,40.259 40.133,39.119 L52.955,26.297 C53.217,26.178 53.707,25.978 54.147,25.813 C54.588,25.647 54.967,25.347 55.228,24.955 L57.213,21.978 C57.808,21.086 57.691,19.897 56.932,19.139 L55.94,18.147 C55.504,17.713 54.928,17.488 54.347,17.488 L54.347,17.488 Z"/><path fill="#FFF" d="M53.355,23.708 C53.355,23.708 51.766,24.304 51.574,24.497 L38.542,37.53 L37.549,36.538 L50.582,23.505 C50.775,23.312 51.372,21.724 51.372,21.724 L54.349,19.739 L55.341,20.731 L53.355,23.708 Z"/></g></svg>