<?xml version="1.0" encoding="UTF-8"?>
<svg width="137px" height="20px" viewBox="0 0 137 20" version="1.1" xmlns="http://www.w3.org/2000/svg" xmlns:xlink="http://www.w3.org/1999/xlink">
    <title>Group</title>
    <g id="Page-1" stroke="none" stroke-width="1" fill="none" fill-rule="evenodd">
        <g id="Group" transform="translate(0.234427, 0.317428)" fill-rule="nonzero">
            <path d="M71.723902,15.182572 L72.668902,12.182572 L76.253902,12.182572 L77.198902,15.182572 L78.518902,15.182572 L75.188902,5.342572 L73.778902,5.342572 L70.448902,15.182572 L71.723902,15.182572 Z M75.938902,11.177572 L72.983902,11.177572 L73.463902,9.677572 C73.808902,8.582572 74.123902,7.502572 74.438902,6.362572 L74.498902,6.362572 C74.813902,7.502572 75.128902,8.582572 75.473902,9.677572 L75.938902,11.177572 Z M80.978902,18.257572 L80.978902,15.797572 L80.948902,14.522572 C81.623902,15.047572 82.298902,15.362572 82.973902,15.362572 C84.638902,15.362572 86.123902,13.907572 86.123902,11.432572 C86.123902,9.167572 85.118902,7.712572 83.243902,7.712572 C82.388902,7.712572 81.578902,8.177572 80.918902,8.732572 L80.873902,8.732572 L80.768902,7.892572 L79.748902,7.892572 L79.748902,18.257572 L80.978902,18.257572 Z M82.763902,14.327572 C82.283902,14.327572 81.638902,14.117572 80.978902,13.562572 L80.978902,9.737572 C81.698902,9.092572 82.313902,8.747572 82.928902,8.747572 C84.308902,8.747572 84.848902,9.827572 84.848902,11.432572 C84.848902,13.232572 83.963902,14.327572 82.763902,14.327572 Z M89.303902,18.257572 L89.303902,15.797572 L89.273902,14.522572 C89.948902,15.047572 90.623902,15.362572 91.298902,15.362572 C92.963902,15.362572 94.448902,13.907572 94.448902,11.432572 C94.448902,9.167572 93.443902,7.712572 91.568902,7.712572 C90.713902,7.712572 89.903902,8.177572 89.243902,8.732572 L89.198902,8.732572 L89.093902,7.892572 L88.073902,7.892572 L88.073902,18.257572 L89.303902,18.257572 Z M91.088902,14.327572 C90.608902,14.327572 89.963902,14.117572 89.303902,13.562572 L89.303902,9.737572 C90.023902,9.092572 90.638902,8.747572 91.253902,8.747572 C92.633902,8.747572 93.173902,9.827572 93.173902,11.432572 C93.173902,13.232572 92.288902,14.327572 91.088902,14.327572 Z M99.203902,15.362572 C101.273902,15.362572 102.563902,14.117572 102.563902,12.557572 C102.563902,11.102572 101.678902,10.427572 100.538902,9.932572 L99.128902,9.332572 C98.363902,9.002572 97.493902,8.642572 97.493902,7.697572 C97.493902,6.812572 98.228902,6.257572 99.338902,6.257572 C100.238902,6.257572 100.973902,6.617572 101.573902,7.187572 L102.233902,6.377572 C101.543902,5.657572 100.508902,5.162572 99.338902,5.162572 C97.553902,5.162572 96.233902,6.272572 96.233902,7.772572 C96.233902,9.212572 97.313902,9.917572 98.228902,10.307572 L99.638902,10.922572 C100.568902,11.342572 101.288902,11.657572 101.288902,12.662572 C101.288902,13.622572 100.523902,14.267572 99.233902,14.267572 C98.198902,14.267572 97.223902,13.772572 96.518902,13.037572 L95.768902,13.907572 C96.623902,14.792572 97.823902,15.362572 99.203902,15.362572 Z M107.213902,15.362572 C108.083902,15.362572 108.923902,15.002572 109.583902,14.417572 L109.028902,13.607572 C108.593902,13.997572 108.008902,14.342572 107.318902,14.342572 C105.983902,14.342572 105.068902,13.217572 105.068902,11.552572 C105.068902,9.872572 106.028902,8.732572 107.348902,8.732572 C107.933902,8.732572 108.383902,9.002572 108.818902,9.377572 L109.433902,8.582572 C108.938902,8.117572 108.263902,7.712572 107.303902,7.712572 C105.428902,7.712572 103.793902,9.107572 103.793902,11.552572 C103.793902,13.967572 105.278902,15.362572 107.213902,15.362572 Z M114.008902,15.362572 C115.793902,15.362572 117.383902,13.967572 117.383902,11.552572 C117.383902,9.107572 115.793902,7.712572 114.008902,7.712572 C112.223902,7.712572 110.633902,9.107572 110.633902,11.552572 C110.633902,13.967572 112.223902,15.362572 114.008902,15.362572 Z M114.008902,14.342572 C112.763902,14.342572 111.908902,13.217572 111.908902,11.552572 C111.908902,9.872572 112.763902,8.732572 114.008902,8.732572 C115.268902,8.732572 116.108902,9.872572 116.108902,11.552572 C116.108902,13.217572 115.268902,14.342572 114.008902,14.342572 Z M120.533902,18.257572 L120.533902,15.797572 L120.503902,14.522572 C121.178902,15.047572 121.853902,15.362572 122.528902,15.362572 C124.193902,15.362572 125.678902,13.907572 125.678902,11.432572 C125.678902,9.167572 124.673902,7.712572 122.798902,7.712572 C121.943902,7.712572 121.133902,8.177572 120.473902,8.732572 L120.428902,8.732572 L120.323902,7.892572 L119.303902,7.892572 L119.303902,18.257572 L120.533902,18.257572 Z M122.318902,14.327572 C121.838902,14.327572 121.193902,14.117572 120.533902,13.562572 L120.533902,9.737572 C121.253902,9.092572 121.868902,8.747572 122.483902,8.747572 C123.863902,8.747572 124.403902,9.827572 124.403902,11.432572 C124.403902,13.232572 123.518902,14.327572 122.318902,14.327572 Z M130.583902,15.362572 C131.573902,15.362572 132.353902,15.017572 132.983902,14.612572 L132.548902,13.802572 C132.008902,14.147572 131.423902,14.372572 130.733902,14.372572 C129.338902,14.372572 128.393902,13.382572 128.303902,11.807572 L133.223902,11.807572 C133.253902,11.627572 133.268902,11.387572 133.268902,11.132572 C133.268902,9.047572 132.218902,7.712572 130.358902,7.712572 C128.693902,7.712572 127.088902,9.167572 127.088902,11.552572 C127.088902,13.937572 128.633902,15.362572 130.583902,15.362572 Z M132.188902,10.997572 L128.288902,10.997572 C128.438902,9.527572 129.368902,8.687572 130.388902,8.687572 C131.528902,8.687572 132.188902,9.512572 132.188902,10.997572 Z" id="AppScope" fill="#666666"></path>
            <path d="M133.288981,6.69316446 L133.288981,5.30086288 L133.761793,5.30086288 L133.761793,5.13454699 L132.618966,5.13454699 L132.618966,5.30086288 L133.091778,5.30086288 L133.091778,6.69316446 L133.288981,6.69316446 Z M134.210846,6.69316446 L134.210846,5.83544966 C134.210846,5.69764507 134.196591,5.51232165 134.187087,5.37451706 L134.196591,5.37451706 L134.32014,5.72140448 L134.619508,6.53635233 L134.733553,6.53635233 L135.032922,5.72140448 L135.156471,5.37451706 L135.165975,5.37451706 C135.156471,5.51232165 135.139839,5.69764507 135.139839,5.83544966 L135.139839,6.69316446 L135.327539,6.69316446 L135.327539,5.13454699 L135.094696,5.13454699 L134.795328,5.97087831 L134.686035,6.28925444 L134.676531,6.28925444 L134.564862,5.97087831 L134.263117,5.13454699 L134.027899,5.13454699 L134.027899,6.69316446 L134.210846,6.69316446 Z" id="TM" fill="#000000"></path>
            <g id="Cribl-Logo_WhiteAqua_R">
                <polygon id="Path" fill="#11CDCC" points="0 10.2181862 0 9.35285198 15.1052276 9.35285198 8.09868923 13.2182654"></polygon>
                <polygon id="Path" fill="#11CDCC" points="6.9226734 13.8682191 0 17.687888 0 11.3046189"></polygon>
                <polygon id="Path" fill="#11CDCC" points="0 7.46779581 0 8.33503601 15.1052276 8.33503601 8.09868923 4.46962256"></polygon>
                <polygon id="Path" fill="#11CDCC" points="6.9226734 3.81966891 0 0 0 6.38326906"></polygon>
                <path d="M24.3665905,2.38252802 C25.089652,2.36423821 25.8101231,2.47592415 26.4937115,2.71226989 C27.080385,2.93469591 27.6264515,3.25216148 28.1100185,3.65193894 L27.0216797,4.95565827 C26.6685941,4.65296678 26.2628517,4.41779128 25.8246977,4.26186611 C25.3878646,4.10984998 24.9282207,4.03377989 24.4657037,4.03695547 C23.8618509,4.03203352 23.2683191,4.19360608 22.7502835,4.50393096 C22.1830791,4.86906488 21.7439748,5.40212021 21.4942147,6.02874889 C21.1790857,6.73016514 21.0215212,7.66665748 21.0215212,8.83822593 C21.0215212,9.98183937 21.1714616,10.9062602 21.4713425,11.6114885 C21.7120295,12.2366821 22.1435061,12.7701926 22.704539,13.1363065 C23.2343149,13.4561722 23.843098,13.6212436 24.4618916,13.6128121 C25.0319088,13.6328761 25.5988291,13.5206664 26.1182251,13.2849762 C26.5318888,13.0816654 26.9212772,12.8323034 27.2789928,12.5416275 L28.2872786,13.8300986 C27.240003,14.8222844 25.8389228,15.3536103 24.3970869,15.30536 C23.4028672,15.3203453 22.4234612,15.0633006 21.5647376,14.5620112 C20.7057115,14.042638 20.0173364,13.2833714 19.5843803,12.3777095 C19.1002506,11.4170743 18.8581858,10.234705 18.8581858,8.83060184 C18.8581858,7.42649866 19.1072393,6.25111817 19.6053465,5.30446037 C20.4935149,3.48960701 22.3501178,2.35113814 24.3704026,2.38252802 L24.3665905,2.38252802 Z" id="Path" fill="#000000"></path>
                <path d="M37.3580393,5.37688923 C37.1068293,5.32863391 36.8514196,5.30564703 36.5956303,5.30827242 C35.8668999,5.27677067 35.1497085,5.49832559 34.5657165,5.93535379 C33.9848898,6.42687529 33.5322405,7.05221156 33.2467489,7.75751122 L32.8769806,5.55224329 L29.9417061,5.55224329 L29.9417061,6.98366612 L31.3369145,6.98366612 L31.3369145,13.6204362 L29.9417061,13.6204362 L29.9417061,15.0575771 L35.2785688,15.0575771 L35.2785688,13.6204362 L33.3553922,13.6204362 L33.3553922,10.0904827 C33.6425663,9.14382485 34.0371129,8.41127691 34.5390321,7.89283881 C34.9848799,7.41812442 35.603323,7.14326078 36.2544523,7.13042985 L36.2544523,9.05551248 L37.6954053,9.05551248 L38.0365833,5.55224329 C37.8140178,5.48060035 37.5874488,5.42204883 37.3580393,5.37688923 L37.3580393,5.37688923 Z" id="Path" fill="#000000"></path>
                <path d="M44.4427246,5.55224329 L44.4427246,13.5842217 L47.5018906,13.5842217 L47.5018906,15.0575771 L39.5804614,15.0575771 L39.5804614,13.5842217 L42.4261529,13.5842217 L42.4261529,7.02941066 L39.6700445,7.02941066 L39.6700445,5.55224329 L44.4427246,5.55224329 Z M43.0379861,0.897736556 C43.3913685,0.883581566 43.7353383,1.01360218 43.9909973,1.25797479 C44.2332296,1.49361507 44.3659138,1.81979708 44.3569536,2.15761737 C44.3648914,2.49805185 44.2325701,2.82678751 43.9909973,3.06679006 C43.4517699,3.56101591 42.6242022,3.56101591 42.0849749,3.06679006 C41.8416195,2.82768919 41.7078162,2.49869868 41.7152065,2.15761737 C41.7067682,1.81913661 41.8409447,1.49268672 42.0849749,1.25797479 C42.3402736,1.01303091 42.684496,0.88291486 43.0379861,0.897736556 Z" id="Shape" fill="#000000"></path>
                <path d="M51.6017448,6.68632662 C51.912919,6.27125736 52.3068858,5.92531947 52.7587004,5.67041668 C53.203011,5.42266346 53.704307,5.2952042 54.2129955,5.30064833 C55.0478333,5.30064833 55.7244713,5.50586341 56.2429094,5.91629357 C56.7899307,6.36781939 57.1884133,6.97351293 57.3865228,7.65458601 C57.6461886,8.50924391 57.7696858,9.39945308 57.7524791,10.292521 C57.7666055,11.1731842 57.6199838,12.049039 57.319812,12.8770874 C57.0686553,13.5790569 56.6239278,14.1955958 56.0370589,14.6554063 C55.4386659,15.1007164 54.706904,15.329854 53.9614005,15.30536 C52.9857487,15.3438839 52.0527984,14.9033834 51.4626051,14.1255321 L51.3577739,15.0575771 L49.5851731,15.0575771 L49.5851731,1.7344804 L51.6017448,1.50956975 L51.6017448,6.68632662 Z M53.4658347,13.7652939 C54.1070218,13.7877835 54.7120507,13.4685836 55.0554574,12.926644 C55.4290378,12.3688148 55.6164633,11.4926798 55.617734,10.2982391 C55.6345682,9.63215828 55.5588759,8.96696402 55.3928234,8.32169385 C55.2897005,7.89242937 55.0591408,7.50439815 54.7314336,7.20857676 C54.4272151,6.97117633 54.0497984,6.84716799 53.664061,6.85786864 C53.232592,6.85160499 52.8122879,6.99507415 52.474703,7.26385141 C52.1336423,7.53173606 51.8387539,7.85366667 51.6017448,8.21686262 L51.6017448,12.6655189 C51.8081709,12.992681 52.086526,13.2684286 52.4156163,13.4717664 C52.7307768,13.6672075 53.0950119,13.7690083 53.4658347,13.7652939 L53.4658347,13.7652939 Z" id="Shape" fill="#000000"></path>
                <path d="M62.677641,1.7344804 L62.677641,12.4672926 C62.677641,12.9056778 62.8110626,13.2163594 63.0779057,13.3993376 C63.3886048,13.5951953 63.7516589,13.6916108 64.118594,13.6757108 C64.3824702,13.6772267 64.6455436,13.6465028 64.9019692,13.5842217 C65.1467221,13.5248498 65.3873824,13.449723 65.6224456,13.3593111 L66.1389777,14.7640496 C65.8066476,14.9278178 65.4577717,15.0556112 65.0982895,15.1452541 C64.6375114,15.2585968 64.1642173,15.3130352 63.6897389,15.307266 C62.735457,15.307266 61.9927436,15.0385168 61.4615987,14.5010185 C60.9304538,13.9635202 60.6648813,13.2265249 60.6648813,12.2900325 L60.6648813,3.21927185 L58.2613871,3.21927185 L58.2613871,1.7344804 L62.677641,1.7344804 Z" id="Path" fill="#000000"></path>
            </g>
        </g>
    </g>
</svg>