<?xml version="1.0" encoding="utf-8"?>
<!-- Generator: Adobe Illustrator 25.2.1, SVG Export Plug-In . SVG Version: 6.00 Build 0)  -->
<svg version="1.1" id="Layer_1" xmlns="http://www.w3.org/2000/svg" xmlns:xlink="http://www.w3.org/1999/xlink" x="0px" y="0px"
	 width="600px" height="300px" viewBox="0 0 600 300" style="enable-background:new 0 0 600 300;" xml:space="preserve">
<style type="text/css">
	.st0{fill:#0FB9B8;}
	.st1{fill:#00CCCC;}
	.st2{fill:#333333;}
	.st3{fill:#FFFFFF;}
	.st4{fill:none;stroke:#000000;stroke-width:2.2425;stroke-linecap:round;stroke-linejoin:round;stroke-miterlimit:10;}
	.st5{fill:#59AE0B;}
	.st6{fill:#632CA6;}
	.st7{fill:#008C99;}
	.st8{fill:#72CCD2;}
	.st9{fill:#4285F4;}
	.st10{fill:#EA4336;}
	.st11{fill:#5E6268;}
	.st12{fill:#34A752;}
	.st13{fill:#FABB08;}
	.st14{opacity:0.24;filter:url(#AI_GaussianBlur_1_5_);}
	.st15{fill:#FF9900;}
	.st16{fill:#CCCCCC;}
	.st17{fill:url(#SVGID_1_);}
	.st18{opacity:0.24;fill:url(#SVGID_2_);}
	.st19{opacity:0.24;fill:url(#SVGID_3_);}
	.st20{fill:#999999;}
	.st21{opacity:0.6;fill:url(#SVGID_4_);}
	.st22{opacity:0.6;fill:url(#SVGID_5_);}
	.st23{fill:#D8D8D8;}
	.st24{opacity:0.24;}
	.st25{filter:url(#Adobe_OpacityMaskFilter);}
	.st26{opacity:0.18;mask:url(#SVGID_6_);}
	.st27{fill:none;stroke:#E8E8E8;stroke-width:0.3489;stroke-miterlimit:10;}
	.st28{fill:none;}
	.st29{fill:#ADADAD;}
	.st30{opacity:0.24;fill:url(#SVGID_7_);}
	.st31{opacity:0.6;fill:url(#SVGID_8_);}
	.st32{opacity:0.6;fill:url(#SVGID_9_);}
	.st33{opacity:0.06;clip-path:url(#SVGID_11_);filter:url(#AI_GaussianBlur_1_5_);}
	.st34{opacity:0.06;clip-path:url(#SVGID_13_);filter:url(#AI_GaussianBlur_1_5_);}
	.st35{opacity:0.24;fill:url(#SVGID_14_);}
	.st36{opacity:0.6;fill:url(#SVGID_15_);}
	.st37{opacity:0.6;fill:url(#SVGID_16_);}
	.st38{opacity:0.06;clip-path:url(#SVGID_18_);filter:url(#AI_GaussianBlur_1_5_);}
	.st39{fill:#5AD7D6;}
	.st40{opacity:0.24;fill:url(#SVGID_19_);}
	.st41{opacity:0.6;fill:url(#SVGID_20_);}
	.st42{opacity:0.24;fill:url(#SVGID_21_);}
	.st43{fill:#B2EBEB;}
	.st44{opacity:0.06;clip-path:url(#SVGID_23_);filter:url(#AI_GaussianBlur_1_5_);}
	.st45{opacity:0.24;fill:url(#SVGID_24_);}
	.st46{opacity:0.6;fill:url(#SVGID_25_);}
	.st47{opacity:0.6;fill:url(#SVGID_26_);}
	.st48{fill:none;stroke:#CCCCCC;stroke-width:0.474;stroke-miterlimit:10;}
	.st49{opacity:0.12;clip-path:url(#SVGID_28_);}
	.st50{fill:none;stroke:#FFFFFF;stroke-width:0.75;stroke-miterlimit:10;}
	.st51{opacity:0.12;}
	.st52{opacity:0.48;}
	.st53{filter:url(#Adobe_OpacityMaskFilter_1_);}
	.st54{opacity:0.36;mask:url(#SVGID_29_);}
	.st55{opacity:0.36;}
	.st56{filter:url(#Adobe_OpacityMaskFilter_2_);}
	.st57{opacity:0.18;mask:url(#SVGID_30_);}
	.st58{fill:none;stroke:#FFFFFF;stroke-width:0.3489;stroke-miterlimit:10;}
	.st59{opacity:0.24;fill:url(#SVGID_31_);}
	.st60{opacity:0.24;fill:url(#SVGID_32_);}
	.st61{opacity:0.24;fill:url(#SVGID_33_);}
	.st62{opacity:0.12;filter:url(#AI_GaussianBlur_1_5_);}
	.st63{fill:url(#SVGID_34_);}
	.st64{fill:#33D6D6;}
	.st65{opacity:0.36;fill:url(#SVGID_35_);}
	.st66{opacity:0.84;fill:url(#SVGID_36_);}
	.st67{opacity:0.6;fill:url(#SVGID_37_);}
	.st68{opacity:0.36;fill:#BF8226;}
	.st69{fill:#99EBEB;}
	.st70{opacity:0.72;fill:#00CCCC;}
	.st71{fill:#FFFFFF;stroke:#000000;stroke-width:2.2425;stroke-linecap:round;stroke-linejoin:round;stroke-miterlimit:10;}
	.st72{fill:#161614;}
	.st73{fill-rule:evenodd;clip-rule:evenodd;fill:#36C5F0;}
	.st74{fill-rule:evenodd;clip-rule:evenodd;fill:#2EB67D;}
	.st75{fill-rule:evenodd;clip-rule:evenodd;fill:#ECB22E;}
	.st76{fill-rule:evenodd;clip-rule:evenodd;fill:#E01E5A;}
	.st77{fill:none;stroke:#000000;stroke-width:2.25;stroke-linecap:round;stroke-linejoin:round;stroke-miterlimit:10;}
	.st78{fill:none;stroke:#000000;stroke-width:3;stroke-linecap:round;stroke-linejoin:round;stroke-miterlimit:10;}
	.st79{fill:none;stroke:#000000;stroke-width:1.875;stroke-linecap:round;stroke-linejoin:round;stroke-miterlimit:10;}
	.st80{fill:none;stroke:#000000;stroke-width:2.5;stroke-linecap:round;stroke-linejoin:round;stroke-miterlimit:10;}
</style>
<g>
	<g>
		<path class="st72" d="M173.838,60c-50.957,0-92.278,41.314-92.278,92.278c0,40.772,26.44,75.361,63.106,87.563
			c4.612,0.854,6.305-2.002,6.305-4.439c0-2.2-0.086-9.47-0.125-17.18c-25.673,5.582-31.09-10.888-31.09-10.888
			c-4.198-10.666-10.246-13.502-10.246-13.502c-8.372-5.728,0.631-5.61,0.631-5.61c9.267,0.651,14.146,9.51,14.146,9.51
			c8.23,14.108,21.587,10.029,26.853,7.671c0.828-5.965,3.22-10.035,5.859-12.339c-20.496-2.334-42.042-10.246-42.042-45.605
			c0-10.074,3.605-18.307,9.508-24.769c-0.958-2.325-4.117-11.71,0.894-24.421c0,0,7.749-2.48,25.383,9.459
			c7.36-2.045,15.255-3.07,23.097-3.105c7.842,0.035,15.742,1.06,23.117,3.105c17.613-11.939,25.351-9.459,25.351-9.459
			c5.023,12.711,1.863,22.096,0.905,24.421c5.916,6.462,9.497,14.694,9.497,24.769c0,35.442-21.587,43.247-42.135,45.531
			c3.31,2.864,6.259,8.48,6.259,17.089c0,12.347-0.107,22.284-0.107,25.324c0,2.456,1.661,5.333,6.339,4.427
			c36.645-12.216,63.052-46.793,63.052-87.551C266.115,101.314,224.8,60,173.838,60"/>
		<path class="st72" d="M116.121,191.453c-0.203,0.458-0.925,0.596-1.581,0.282c-0.669-0.301-1.046-0.926-0.829-1.387
			c0.199-0.472,0.921-0.604,1.589-0.287C115.971,190.361,116.353,190.992,116.121,191.453 M120.66,195.503
			c-0.44,0.408-1.301,0.219-1.885-0.426c-0.604-0.643-0.716-1.503-0.27-1.918c0.454-0.407,1.288-0.217,1.893,0.427
			C121.002,194.236,121.12,195.091,120.66,195.503 M123.774,200.684c-0.566,0.393-1.491,0.025-2.062-0.796
			c-0.565-0.82-0.565-1.804,0.012-2.199c0.573-0.394,1.484-0.04,2.063,0.774C124.352,199.299,124.352,200.283,123.774,200.684
			 M129.04,206.686c-0.506,0.557-1.583,0.408-2.372-0.353c-0.806-0.744-1.031-1.8-0.524-2.358c0.512-0.559,1.595-0.402,2.39,0.353
			C129.335,205.071,129.58,206.135,129.04,206.686 M135.846,208.713c-0.222,0.722-1.26,1.051-2.305,0.744
			c-1.044-0.316-1.727-1.163-1.516-1.893c0.217-0.727,1.259-1.07,2.312-0.741C135.379,207.137,136.064,207.977,135.846,208.713
			 M143.593,209.572c0.026,0.761-0.861,1.392-1.958,1.406c-1.104,0.024-1.996-0.592-2.008-1.34c0-0.769,0.866-1.394,1.969-1.412
			C142.694,208.204,143.593,208.815,143.593,209.572 M151.202,209.28c0.132,0.743-0.631,1.505-1.72,1.708
			c-1.071,0.195-2.063-0.263-2.199-0.999c-0.133-0.761,0.644-1.523,1.713-1.721C150.087,208.079,151.063,208.525,151.202,209.28"/>
	</g>
	<g>
		<path class="st73" d="M404.664,60c-9.93,0.007-17.967,8.066-17.96,17.996c-0.007,9.93,8.037,17.989,17.967,17.996h17.967V78.004
			C422.646,68.073,414.602,60.015,404.664,60C404.672,60,404.672,60,404.664,60 M404.664,108h-47.897
			c-9.93,0.007-17.974,8.066-17.967,17.996c-0.015,9.93,8.029,17.989,17.96,18.004h47.905c9.93-0.007,17.974-8.066,17.967-17.996
			C422.639,116.066,414.595,108.007,404.664,108L404.664,108z"/>
		<path class="st74" d="M518.441,125.996c0.007-9.93-8.037-17.989-17.967-17.996c-9.93,0.007-17.974,8.066-17.967,17.996V144h17.967
			C510.404,143.993,518.448,135.934,518.441,125.996z M470.536,125.996v-48c0.007-9.923-8.029-17.982-17.96-17.996
			c-9.93,0.007-17.974,8.066-17.967,17.996v48c-0.015,9.93,8.029,17.989,17.96,18.004
			C462.499,143.993,470.543,135.934,470.536,125.996z"/>
		<path class="st75" d="M452.569,240c9.93-0.007,17.974-8.066,17.967-17.996c0.007-9.93-8.037-17.989-17.967-17.996h-17.967v17.996
			C434.595,231.927,442.639,239.985,452.569,240z M452.569,191.993h47.905c9.93-0.007,17.974-8.066,17.967-17.996
			c0.015-9.93-8.029-17.989-17.96-18.004h-47.905c-9.93,0.007-17.974,8.066-17.967,17.996
			C434.602,183.927,442.639,191.985,452.569,191.993L452.569,191.993z"/>
		<path class="st76" d="M338.8,173.996c-0.007,9.93,8.037,17.989,17.967,17.996c9.93-0.007,17.974-8.066,17.967-17.996V156h-17.967
			C346.837,156.007,338.793,164.066,338.8,173.996z M386.705,173.996v48c-0.015,9.93,8.029,17.989,17.96,18.004
			c9.93-0.007,17.974-8.066,17.967-17.996v-47.993c0.015-9.93-8.029-17.989-17.96-18.004
			C394.734,156.007,386.697,164.066,386.705,173.996C386.705,173.996,386.705,174.004,386.705,173.996"/>
	</g>
</g>
</svg>
