<svg xmlns="http://www.w3.org/2000/svg" xmlns:xlink="http://www.w3.org/1999/xlink" viewBox="0 0 1417.32 708.66"><defs><style>.cls-1{isolation:isolate;}.cls-2{fill:#fff;}.cls-3{opacity:0.5;}.cls-4,.cls-5,.cls-6,.cls-7{opacity:0.35;}.cls-10,.cls-11,.cls-12,.cls-4,.cls-5,.cls-6,.cls-7,.cls-8,.cls-9{mix-blend-mode:multiply;}.cls-4{fill:url(#radial-gradient);}.cls-5{fill:url(#radial-gradient-2);}.cls-6{fill:url(#radial-gradient-3);}.cls-7{fill:url(#radial-gradient-4);}.cls-8{fill:#0bb2a2;}.cls-10{fill:#28c3f9;}.cls-11{fill:#fc3896;}.cls-12{fill:#fc9706;}</style><radialGradient id="radial-gradient" cx="550.02" cy="3494.1" r="182.75" gradientTransform="translate(-181.08 110.08) scale(1.25 0.15)" gradientUnits="userSpaceOnUse"><stop offset="0" stop-color="#b3b3b3"/><stop offset="0.44" stop-color="#dcdcdc"/><stop offset="0.79" stop-color="#f6f6f6"/><stop offset="1" stop-color="#fff"/></radialGradient><radialGradient id="radial-gradient-2" cx="624.63" cy="3302.97" r="182.75" xlink:href="#radial-gradient"/><radialGradient id="radial-gradient-3" cx="783.12" cy="3523.5" r="182.75" xlink:href="#radial-gradient"/><radialGradient id="radial-gradient-4" cx="891.65" cy="3405.88" r="182.74" xlink:href="#radial-gradient"/></defs><g class="cls-1"><g id="Layer_2" data-name="Layer 2"><g id="Calque_1" data-name="Calque 1"><rect class="cls-2" width="1417.32" height="708.66"/><g class="cls-3"><path class="cls-4" d="M733.63,632.09c0,15.08-102.16,27.3-228.18,27.3s-228.17-12.22-228.17-27.3S379.44,604.8,505.45,604.8,733.63,617,733.63,632.09Z"/><path class="cls-5" d="M826.76,603.54c0,15.07-102.16,27.29-228.17,27.29s-228.18-12.22-228.18-27.29,102.16-27.3,228.18-27.3S826.76,588.46,826.76,603.54Z"/><ellipse class="cls-6" cx="796.42" cy="636.49" rx="228.17" ry="27.3"/><path class="cls-7" d="M1160.06,618.92c0,15.07-102.16,27.29-228.18,27.29S703.71,634,703.71,618.92s102.16-27.3,228.17-27.3S1160.06,603.84,1160.06,618.92Z"/></g><polygon class="cls-8" points="749.34 64.88 292.28 93.71 322.51 438.57 453.85 442.82 544.74 524.31 546.71 446.85 723.13 453.45 749.34 64.88"/><g class="cls-9"><polygon class="cls-10" points="231.24 134.95 624.22 138.03 597.25 460.8 467.38 465.89 358.57 570.89 356.04 470.73 261.57 478.65 231.24 134.95"/></g><polygon class="cls-11" points="1048.47 158.35 562.08 184.93 587.51 494.73 746.32 501.01 851.05 620.48 854.18 506.96 1009.79 516.71 1048.47 158.35"/><g class="cls-9"><polygon class="cls-12" points="1198.48 130.05 785.92 135.9 803.68 433.23 923.6 439.57 1072.74 560.22 1075.91 445.58 1173.11 455.43 1198.48 130.05"/></g><path class="cls-2" d="M375.61,350.74c0,22.68-33.84,59.37-43.33,59.37-12,0-27-14.34-27-54.7,0-63.7,33.66-146.74,58.37-154.74a2.86,2.86,0,0,1,1.61-.33c4.66,0,8.95,6.67,8.95,11a3.86,3.86,0,0,1-1.61,3.34c-9.31,5.33-52.28,83.37-52.28,149.4,0,10-.18,24.35,6.45,24.35,10.92,0,35.27-28,41.18-46.36.71-1.67,1.61-2.67,2.86-2.67,2,0,4.48,3,4.84,10Z"/><path class="cls-2" d="M418.94,379.76c-18.8,0-27.93-34.35-27.93-63,0-55.36,21.48-78.37,31.69-78.37,3.4,0,7,1,9.84,7.67,6.45,0,17.37,4.66,19.16,57.69C451.7,338.74,435.41,379.76,418.94,379.76Zm10.38-114.39c-14.32,0-27.57,39.35-27.57,65,0,15,4.47,20.68,9.13,20.68,7.52,0,17.55-13.34,20.77-24.68,3.58-12.34,6.26-34.35,6.26-47.36v-4C437.38,266,432.18,265.37,429.32,265.37Z"/><path class="cls-2" d="M568,388.38a2,2,0,0,1-1.79-1.16c-8.77-14.29-11.45-73.74-13.42-73.74-3,0-23.1,53.28-28.47,68.33-1.26,3.48-3.58,4.64-6.09,4.64-14.86,0-11.28-16.22-19.34-98.06-10.56,35.51-22.73,84.93-27.93,105.78a5.31,5.31,0,0,1-5.19,3.86c-2.5,0-4.47-1.55-4.47-5.41.71-10.81,31.51-142.84,35.8-155.19,3.05-8.5,7.52-14.68,10.93-14.68,1.79,0,3,1.93,3.76,6.18,2.5,19.3,3.4,70.65,10.38,115.82,19.87-42.85,29.72-72.19,39.93-72.19a2.77,2.77,0,0,1,2.32,1.16c2.69,4.24,13.79,81.45,13.79,99.6,0,1.16-.18,1.93-.18,2.32C577.47,381.43,571.39,388.38,568,388.38Z"/><path class="cls-2" d="M697.79,388.38a2,2,0,0,1-1.79-1.16c-8.77-14.29-11.46-73.74-13.43-73.74-3,0-23.09,53.28-28.47,68.33-1.25,3.48-3.58,4.64-6.08,4.64-14.86,0-11.28-16.22-19.34-98.06-10.56,35.51-22.74,84.93-27.93,105.78a5.32,5.32,0,0,1-5.19,3.86c-2.51,0-4.48-1.55-4.48-5.41.72-10.81,31.51-142.84,35.81-155.19,3-8.5,7.52-14.68,10.92-14.68,1.79,0,3.05,1.93,3.76,6.18,2.51,19.3,3.4,70.65,10.39,115.82,19.87-42.85,29.72-72.19,39.92-72.19a2.79,2.79,0,0,1,2.33,1.16C696.9,278,708,355.17,708,373.32c0,1.16-.18,1.93-.18,2.32C707.28,381.43,701.19,388.38,697.79,388.38Z"/><path class="cls-2" d="M813.37,255c0,52-23.64,130.73-45.66,138.4a19.88,19.88,0,0,1-6.8,1c-7.34,0-16.29-3-20-14-5.2-14.67-8.24-42.35-8.24-70.7,0-25.34,2.33-51.69,7.7-72a1.92,1.92,0,0,1,2.15-1.67c3.76,0,11.1,9,11.28,12.34v.33c-4.66,24.68-6.45,51.36-6.45,74.37,0,32,3.4,56.36,8.06,56.36,20.23,0,41.71-76.7,42.07-138.73,0-5.34,6.09-8.67,10.21-8.67,5.55,0,4.65,6.67,5.37,13C813.19,248.36,813.37,251.36,813.37,255Z"/><path class="cls-2" d="M903.78,270.37c.18,17-2.14,48.36-2.14,91.71,0,4.67-5.38,9-8.78,9-3.58,0-33.48-60.37-43.5-76.37-.18,4.33-.18,9.67-.18,15.34,0,16,.35,35.35.35,50,0,12,.18,20.68-2.32,20.68-2.69,0-7.34-8.34-8.78-16.68,0-1.33-.53-90-.71-110.72,0-3.67,2.5-5.67,5-5.67a3.13,3.13,0,0,1,2.51,1c3,4.34,36.88,71,43.5,80.71,1.26,0,1.79-69.37,3.41-76.7.53-2.34,1.79-3.34,3.4-3.34,3,0,8.05,5.34,8.05,14C903.6,265.37,903.78,267.7,903.78,270.37Z"/><path class="cls-2" d="M946.22,385.43c-.72,1-1.26,1.33-1.79,1.33-3.23,0-6.27-12.34-7.7-18a227.75,227.75,0,0,1-2.33-23c-2.51-37-3.76-103-2.33-109,.36-2,2.33-3,4.48-3,3.58,0,8.24,2.66,9.67,8.33a99.74,99.74,0,0,1,1.61,15C950.34,294.72,949.26,380.42,946.22,385.43Z"/><path class="cls-2" d="M1061.16,232.35a8.16,8.16,0,0,1-.36,2.34c-1.79,4.67-41,8.33-42.43,14.67-.36,1.67-.53,7-.53,14.67,0,35,3.4,119.73,3.4,134.4,0,2.67-.54,4-3.76,4-4.3,0-10.75-3.67-13.25-15-1.61-11.67-2.15-69.7-2.15-107V250c.18-.67-16.83,3-25.24,3-6.09,0-16.48-10.34-17-17.68,0-3,1.79-3.66,4.11-3.66,1.79,0,4.12.66,6.27.66,9.85,0,29-12.67,62.13-12.67,8.23,0,28.29-2.34,28.82,11.67Z"/><path class="cls-2" d="M1107.54,330.07c-.9,2.33-1.26,10-1.26,19,0,12.34.54,28,.54,39,0,12-.36,15.35-2.68,15.35-3.41,0-9.31-8.34-11.46-11.34-1.61-2-2-24.68-2-43.36,0-14.34.18-26.68.18-26.68-5.2-10.34-38.86-92.38-38.5-98.71.36-3,2.33-4.34,4.48-4.34a8.26,8.26,0,0,1,7.52,5c5.19,15.68,26.14,78.71,29.9,78.71,2.86,0,17.36-82,24.53-95.38,2.14-4,4.83-6,7.16-6,2.86,0,5.37,3,5.37,7.33C1131.35,221.68,1112.91,315.73,1107.54,330.07Z"/></g></g></g></svg>