<svg xmlns="http://www.w3.org/2000/svg" xmlns:xlink="http://www.w3.org/1999/xlink" width="1920" height="887" viewBox="0 0 1920 887"><defs><style>.a{fill:none;}.b{opacity:0.112;}.b,.d,.e,.g,.i,.j,.k{isolation:isolate;}.c{clip-path:url(#a);}.d{opacity:0.93;fill:url(#b);}.d,.e,.g,.i,.j,.k{mix-blend-mode:overlay;}.e{opacity:0.44;}.f{fill:url(#c);}.g{opacity:0.43;}.h{fill:url(#d);}.i,.j,.k{opacity:0.26;}.i{fill:url(#e);}.j{fill:url(#f);}.k{fill:url(#g);}</style><clipPath id="a"><rect class="a" width="1920" height="887" transform="translate(0 0)"/></clipPath><linearGradient id="b" y1="0.5" x2="1" y2="0.5" gradientUnits="objectBoundingBox"><stop offset="0" stop-color="#fff"/><stop offset="0.05" stop-color="#38eaaf"/><stop offset="0.51" stop-color="#2e90fa"/><stop offset="0.94" stop-color="#38eaaf"/></linearGradient><linearGradient id="c" x1="-0.035" y1="0.679" x2="1.113" y2="0.679" gradientUnits="objectBoundingBox"><stop offset="0" stop-color="#fff"/><stop offset="0.03" stop-color="#38eaaf"/><stop offset="0.51" stop-color="#2e98fa"/><stop offset="0.94" stop-color="#38eaaf"/></linearGradient><linearGradient id="d" x1="-2.32" y1="1.526" x2="-1.019" y2="1.526" gradientUnits="objectBoundingBox"><stop offset="0" stop-color="#fff"/><stop offset="0.05" stop-color="#38eaaf"/><stop offset="0.33" stop-color="#1cb5fa"/><stop offset="0.78" stop-color="#38eaaf"/><stop offset="0.99" stop-color="#fff"/></linearGradient><linearGradient id="e" y1="0.5" x2="1" y2="0.5" gradientUnits="objectBoundingBox"><stop offset="0" stop-color="#fff"/><stop offset="0.05" stop-color="#38eaaf"/><stop offset="0.51" stop-color="#1cb5fa"/><stop offset="0.94" stop-color="#38eaaf"/></linearGradient><linearGradient id="f" x1="0.19" y1="0.385" x2="1.513" y2="0.385" gradientUnits="objectBoundingBox"><stop offset="0" stop-color="#fff"/><stop offset="0.05" stop-color="#38eaaf"/><stop offset="0.51" stop-color="#1cb5fa"/><stop offset="0.84" stop-color="#38eaaf"/></linearGradient><linearGradient id="g" x1="-0.342" y1="0.833" x2="1.041" y2="0.833" xlink:href="#e"/></defs><g class="b" transform="translate(-429.32 -524.874)"><g transform="translate(429.32 524.875)"><g transform="translate(0 0)"><g class="c"><g transform="translate(-254.53 49.563)"><path class="d" d="M-107.91,513.577a334.54,334.54,0,0,1,17.2-77.657c16.228-45.909,47.623-98.256,109.964-139.132s180.867-133.68,311.705-142.66c130.036-8.881,277.975,44.577,465.895,113.7,189.759,69.813,345.789,132.891,475.613,183.536,129.73,51.8,236.415,80.346,334.514,75.215,196.1-7.4,357.394-154.7,586.614-381.158C2310.323,43.143,2361.648,15.119,2369.6,21.163c8.256,6.932-26.866,47.907-75.644,104.053s-111.284,127.168-159.119,190.517c-48.26,62.141-81.848,116.461-83,110.566-.236,6.439-19.035,20.426-61.327,57.577-41.985,34.832-103.029,100.476-193.958,141.179s-212.427,56.936-364.682,23.83c-153.057-30.713-341.59-118.213-594.139-244.616C578.785,294.863,396.644,294.345,295.455,356.93,192.45,418.725,111.9,672.419,127.75,796.5c15.143,118.533-51.491,49.954-2.359,135.678,47.174,82.122,33.258,77.781,35.381,88.808C-3.489,788.214,64.206,701.528-107.91,513.577Z" transform="translate(107.91 -20.385)"/></g><g class="e" transform="translate(-371.205 -211.722)"><g transform="translate(0 0)"><path class="f" d="M-21.807,870.217c7.383,4.293-38.282-24.669-76.965-77.682-39.391-53.013-71.752-135.679-53.26-244.344,17.549-105.8,87.815-237.857,232.924-304.364,142.49-69.443,365.059-46.4,621.193,85.255,260.026,145.028,441.081,288.847,572.485,364.95,132.442,80.223,222.121,111.725,316.753,115.647,93.523,4.687,192.8-21.018,327.225-79.212,134.141-62.535,303.426-157.535,530.335-391.321,110.2-116.535,189.169-226.953,239.717-302.069,50.736-76.325,73.12-117.547,74.7-122.012,2.854-10.682-77.626,123.344-183.532,261.613-106.143,140.834-235.731,275.945-335.882,362.434-100.152,87.476-172.187,138.145-168.908,135.333-4.718,4.12-34.225,25.236-99.7,64.558-63.827,37.916-160.912,88.956-258.728,119.594-100.222,29.972-195.774,48.6-314.866,14.456-123.078-32.069-274.838-136.394-596.143-365.1C643.73,403.952,497.891,346.2,392.432,339.591,285.983,331.3,219.892,374.152,194.96,432.543,141.629,555.887-27.208,690.9,107.687,835.927c127.7,137.307-217.734,293.682-125.012,399.635C77.92,1344.4,346.508,860.054-21.807,870.217Z" transform="translate(157.376 85.533)"/></g></g><g class="g" transform="translate(321.381 -1293.578)"><path class="h" d="M2737.54,101.824c-.825,14.259,2.524-76.153-15.78-180.7-18.021-106.52-61.327-227.5-151.831-322.273C2482-492.423,2343.492-574.94,2213.763-485.811c-131.287,78.471-231.815,405.974-304.087,780.4-66.3,387.843-107.251,600.858-156.666,729.16-48.354,128.278-99.774,183.363-172.871,219.9-72.035,35.967-169.262,47.635-315.6,46.4-74.489-2.837-161.053-7.672-269.885-24.669-108.5-15.936-239.457-43.985-396.949-71.1-154.5-27.7-272.645-33.648-347.628-26.741-75.739,6.439-110.176,17.49-113.549,17.268-6.817.3,112.393-36.041,268.753-20.278,156.9,12.951,341.519,60.661,475.377,89.277,134.447,29.849,225.282,46.871,220.894,45.317,6.51,1.628,43.66,8.141,121.922,17.268,76.045,8.683,187.872,17.268,287.033,9.3,100.552-9.646,190.278-25.039,262.148-96.6,38.164-35.7,69.394-90.929,101.024-186.1,31.229-96.924,62.836-233.762,92.533-472.58,37.292-230.382,84.23-448.972,141.712-572.144,56.609-127.118,125.3-153.465,183.084-111.676,121.875,85.354,182.117,407.257,204.077,695.66,23.3,296.346,27.786,559.538,35.168,705.676,6.557,152.305,8.043,207.391,10.8,225.029a4166.04,4166.04,0,0,1,14.01-654.044C2580.78,611.407,2633.238,341.778,2737.54,101.824Z" transform="translate(-136.252 524.085)"/></g><g transform="translate(-854.777 -74.99)"><path class="i" d="M-362.39,463.087A320.061,320.061,0,0,1-344.251,385.4c17.124-45.909,50.288-98.157,116.073-139.107s163.507-71.392,301.61-80.272c137.278-8.782,314.606,3.429,519.3,51.286,203.817,59.205,365.059,132.916,502.078,183.536,136.806,51.8,249.6,80.371,353.148,75.215,207.025-7.4,377.4-154.7,619.282-381.133,123.22-102.3,177.4-130.3,185.773-124.257,8.727,6.907-28.3,47.882-79.819,104.053S2055.677,201.869,2005.2,265.243c-50.948,62.116-86.4,116.437-87.627,110.541-.236,6.463-20.1,20.426-64.629,57.577-44.391,34.832-108.879,100.4-204.784,141.179-96.354,40.8-224.244,56.911-384.991,23.805-161.549-30.713-360.6-118.188-627.232-244.616C362.587,244.324,170.186,243.781,63.477,306.391-45.4,368.235-68.352,493.133-49.364,616.946-30.824,741.573,29.795,865.04,78.9,944.277c50.312,81.777,89.113,119.3,91.353,130.325C-3.133,841.827-180.7,651.014-362.39,463.087Z" transform="translate(362.39 30.106)"/></g><g transform="translate(835.813 -41.698)"><path class="j" d="M354.35,606.228a415.258,415.258,0,0,0,15.685,77.263C384.188,729,410.37,780.513,460.87,820.032S585.5,887.748,689.454,893.768c103.312,5.8,236.132-10.262,388.576-62.535,151.5-63.473,270.616-140.81,372.3-194.316,101.425-54.715,185.3-85.724,263.21-82.838,155.676,2.985,287.363,146.483,475.047,367.565,95.221,99.588,136.641,126.4,142.773,120.187,6.368-7.1-22.55-47.266-62.695-102.277S2177.1,814.975,2137.521,752.736c-39.886-61.006-67.955-114.537-68.71-108.543-.354-6.439-15.638-19.982-50.052-56.146-34.272-33.87-84.4-98.009-157.539-136.714S1691.392,399.281,1571.5,435.84C1451.015,470.056,1303.854,561.8,1106.83,693.95,904.451,809.227,760.1,813.915,678.226,753.673c-83.286-59.452-103.784-183.857-92.863-307.99,10.661-125,52.906-249.747,87.7-330.044C708.677,32.826,736.746-5.509,738.232-16.61,614.163,219.84,485.849,414.428,354.35,606.228Z" transform="translate(-354.35 16.61)"/></g><g transform="translate(-1012.655 -233.819)"><path class="k" d="M-428.961,460.04a412.544,412.544,0,0,0,4.269,78.94c7.289,47.216,25.757,102.3,69.936,149.394,43.825,47.364,113.36,86.735,215.21,109.159,101.284,22.2,234.905,27.407,393.175,0,158.931-38.656,287.906-96.208,396.077-132.916,108.218-37.965,195.609-55.307,272.173-40.062,153.317,27.654,262.785,190.419,416.149,438.808,79.654,113.477,116.686,146.656,123.668,141.476,7.312-6.019-15.426-50.3-47.175-111.01s-72.413-137.677-102.486-205.466c-30.663-66.606-50.547-124.01-52.151-118.41.59-6.414-12.548-22.2-41.325-63.448-28.942-38.927-69.158-110.27-135.862-160.15S922.3,467.909,798.612,485.029c-124.069,14.653-282.858,81.95-496.653,181.291-216.767,81.8-360.248,63.473-432.307-9.078C-204.01,585.259-206.3,459.029-177.4,338.1-148.722,216.263-88.834,99.678-42.791,25.869,4.383-50.333,37.853-83.759,40.825-94.49-116.077,119.413-271.139,291.33-428.961,460.04Z" transform="translate(429.324 94.49)"/></g></g></g></g></g></svg>