<?xml version="1.0" encoding="utf-8"?><svg xmlns="http://www.w3.org/2000/svg" viewBox="0 0 347.93 92.8"><defs><style>.cls-1{fill:#0cc;}.cls-2{fill:#fff;}.cls-3{fill:none;stroke:#fff;stroke-miterlimit:10;}</style></defs><g id="Layer_2" data-name="Layer 2"><g id="Artwork_Guidelines" data-name="Artwork Guidelines"><polygon class="cls-1" points="0 53.61 0 49.07 79.25 49.07 42.49 69.35 0 53.61"/><polygon class="cls-1" points="36.32 72.76 0 92.8 0 59.31 36.32 72.76"/><polygon class="cls-1" points="0 39.18 0 43.73 79.25 43.73 42.49 23.45 0 39.18"/><polygon class="cls-1" points="36.32 20.04 0 0 0 33.49 36.32 20.04"/><path class="cls-2" d="M127.84,12.5A31.7,31.7,0,0,1,139,14.23a30,30,0,0,1,8.48,4.93L141.77,26a19.9,19.9,0,0,0-6.28-3.64,21.25,21.25,0,0,0-7.13-1.18,17.24,17.24,0,0,0-9,2.45,17,17,0,0,0-6.59,8q-2.48,5.52-2.48,14.74,0,9,2.36,14.55a16.73,16.73,0,0,0,6.47,8,17.38,17.38,0,0,0,9.22,2.5,19.38,19.38,0,0,0,8.69-1.72,32.13,32.13,0,0,0,6.09-3.9l5.29,6.76A28.3,28.3,0,0,1,128,80.3a28.62,28.62,0,0,1-14.86-3.9,27,27,0,0,1-10.39-11.46q-3.81-7.56-3.81-18.61t3.92-18.5a27.36,27.36,0,0,1,25-15.33Z"/><path class="cls-2" d="M196,28.21a20.11,20.11,0,0,0-4-.36,16.58,16.58,0,0,0-10.65,3.29,24.63,24.63,0,0,0-6.92,9.56l-1.94-11.57h-15.4v7.51h7.32V71.46h-7.32V79h28V71.46H175V52.94q2.26-7.45,6.21-11.53a12.69,12.69,0,0,1,9-4V47.51h7.56l1.79-18.38A31.43,31.43,0,0,0,196,28.21Z"/><path class="cls-2" d="M233.17,29.13V71.27h16.05V79H207.66V71.27h14.93V36.88H208.13V29.13ZM225.8,4.71a6.84,6.84,0,0,1,5,1.89,6.35,6.35,0,0,1,1.92,4.72,6.51,6.51,0,0,1-1.92,4.77,7.4,7.4,0,0,1-10,0,6.49,6.49,0,0,1-1.94-4.77,6.33,6.33,0,0,1,1.94-4.72A6.81,6.81,0,0,1,225.8,4.71Z"/><path class="cls-2" d="M270.73,35.08a19.66,19.66,0,0,1,6.07-5.33,15.33,15.33,0,0,1,7.63-1.94q6.57,0,10.65,3.23a18.54,18.54,0,0,1,6,9.12A44.65,44.65,0,0,1,303,54a38,38,0,0,1-2.27,13.56A20.72,20.72,0,0,1,294,76.89a17.29,17.29,0,0,1-10.89,3.41A15.68,15.68,0,0,1,270,74.11L269.45,79h-9.3V9.1l10.58-1.18Zm9.78,37.14a9.48,9.48,0,0,0,8.34-4.4q2.94-4.39,2.95-13.79a37.78,37.78,0,0,0-1.18-10.37,11.48,11.48,0,0,0-3.47-5.84,8.71,8.71,0,0,0-5.6-1.84,9.79,9.79,0,0,0-6.24,2.13,20.84,20.84,0,0,0-4.58,5V66.45A13.34,13.34,0,0,0,275,70.68,10.26,10.26,0,0,0,280.51,72.22Z"/><path class="cls-2" d="M328.84,9.1V65.41q0,3.45,2.1,4.89a9.47,9.47,0,0,0,5.46,1.45,17,17,0,0,0,4.11-.48,30.67,30.67,0,0,0,3.78-1.18L347,77.46a27.29,27.29,0,0,1-5.46,2,29.44,29.44,0,0,1-7.39.85q-7.51,0-11.69-4.23t-4.18-11.6V16.89H305.67V9.1Z"/><path class="cls-2" d="M344,11.67l-1.08-1.95h-.75v1.95h-.89v-5H343c1,0,1.84.37,1.84,1.49a1.41,1.41,0,0,1-1,1.43L345,11.67ZM342.18,9h.7c.69,0,1.05-.29,1.05-.85s-.36-.77-1.05-.77h-.7Z"/><circle class="cls-3" cx="343" cy="9.1" r="4.43"/></g></g></svg>