<?xml version="1.0" encoding="utf-8"?>
<!-- Generator: Adobe Illustrator 25.2.1, SVG Export Plug-In . SVG Version: 6.00 Build 0)  -->
<svg version="1.1" id="Layer_1" xmlns="http://www.w3.org/2000/svg" xmlns:xlink="http://www.w3.org/1999/xlink" x="0px" y="0px"
	 width="132px" height="36px" viewBox="0 0 132 36" style="enable-background:new 0 0 132 36;" xml:space="preserve">
<style type="text/css">
	.st0{fill:#0FB9B8;}
	.st1{fill:#00CCCC;}
	.st2{fill:#333333;}
	.st3{fill:#FFFFFF;}
	.st4{fill:none;stroke:#000000;stroke-width:2.2425;stroke-linecap:round;stroke-linejoin:round;stroke-miterlimit:10;}
	.st5{fill:#59AE0B;}
	.st6{fill:#632CA6;}
	.st7{fill:#008C99;}
	.st8{fill:#72CCD2;}
	.st9{fill:#4285F4;}
	.st10{fill:#EA4336;}
	.st11{fill:#5E6268;}
	.st12{fill:#34A752;}
	.st13{fill:#FABB08;}
	.st14{opacity:0.24;filter:url(#AI_GaussianBlur_1_5_);}
	.st15{fill:#FF9900;}
	.st16{fill:#CCCCCC;}
	.st17{fill:url(#SVGID_1_);}
	.st18{opacity:0.24;fill:url(#SVGID_2_);}
	.st19{opacity:0.24;fill:url(#SVGID_3_);}
	.st20{fill:#999999;}
	.st21{opacity:0.6;fill:url(#SVGID_4_);}
	.st22{opacity:0.6;fill:url(#SVGID_5_);}
	.st23{fill:#D8D8D8;}
	.st24{opacity:0.24;}
	.st25{filter:url(#Adobe_OpacityMaskFilter);}
	.st26{opacity:0.18;mask:url(#SVGID_6_);}
	.st27{fill:none;stroke:#E8E8E8;stroke-width:0.3489;stroke-miterlimit:10;}
	.st28{fill:none;}
	.st29{fill:#ADADAD;}
	.st30{opacity:0.24;fill:url(#SVGID_7_);}
	.st31{opacity:0.6;fill:url(#SVGID_8_);}
	.st32{opacity:0.6;fill:url(#SVGID_9_);}
	.st33{opacity:0.06;clip-path:url(#SVGID_11_);filter:url(#AI_GaussianBlur_1_5_);}
	.st34{opacity:0.06;clip-path:url(#SVGID_13_);filter:url(#AI_GaussianBlur_1_5_);}
	.st35{opacity:0.24;fill:url(#SVGID_14_);}
	.st36{opacity:0.6;fill:url(#SVGID_15_);}
	.st37{opacity:0.6;fill:url(#SVGID_16_);}
	.st38{opacity:0.06;clip-path:url(#SVGID_18_);filter:url(#AI_GaussianBlur_1_5_);}
	.st39{fill:#5AD7D6;}
	.st40{opacity:0.24;fill:url(#SVGID_19_);}
	.st41{opacity:0.6;fill:url(#SVGID_20_);}
	.st42{opacity:0.24;fill:url(#SVGID_21_);}
	.st43{fill:#B2EBEB;}
	.st44{opacity:0.06;clip-path:url(#SVGID_23_);filter:url(#AI_GaussianBlur_1_5_);}
	.st45{opacity:0.24;fill:url(#SVGID_24_);}
	.st46{opacity:0.6;fill:url(#SVGID_25_);}
	.st47{opacity:0.6;fill:url(#SVGID_26_);}
	.st48{fill:none;stroke:#CCCCCC;stroke-width:0.474;stroke-miterlimit:10;}
	.st49{opacity:0.12;clip-path:url(#SVGID_28_);}
	.st50{fill:none;stroke:#FFFFFF;stroke-width:0.75;stroke-miterlimit:10;}
	.st51{opacity:0.12;}
	.st52{opacity:0.48;}
	.st53{filter:url(#Adobe_OpacityMaskFilter_1_);}
	.st54{opacity:0.36;mask:url(#SVGID_29_);}
	.st55{opacity:0.36;}
	.st56{filter:url(#Adobe_OpacityMaskFilter_2_);}
	.st57{opacity:0.18;mask:url(#SVGID_30_);}
	.st58{fill:none;stroke:#FFFFFF;stroke-width:0.3489;stroke-miterlimit:10;}
	.st59{opacity:0.24;fill:url(#SVGID_31_);}
	.st60{opacity:0.24;fill:url(#SVGID_32_);}
	.st61{opacity:0.24;fill:url(#SVGID_33_);}
	.st62{opacity:0.12;filter:url(#AI_GaussianBlur_1_5_);}
	.st63{fill:url(#SVGID_34_);}
	.st64{fill:#33D6D6;}
	.st65{opacity:0.36;fill:url(#SVGID_35_);}
	.st66{opacity:0.84;fill:url(#SVGID_36_);}
	.st67{opacity:0.6;fill:url(#SVGID_37_);}
	.st68{opacity:0.36;fill:#BF8226;}
	.st69{fill:#99EBEB;}
	.st70{opacity:0.72;fill:#00CCCC;}
	.st71{fill:#FFFFFF;stroke:#000000;stroke-width:2.2425;stroke-linecap:round;stroke-linejoin:round;stroke-miterlimit:10;}
	.st72{fill:#161614;}
	.st73{fill-rule:evenodd;clip-rule:evenodd;fill:#36C5F0;}
	.st74{fill-rule:evenodd;clip-rule:evenodd;fill:#2EB67D;}
	.st75{fill-rule:evenodd;clip-rule:evenodd;fill:#ECB22E;}
	.st76{fill-rule:evenodd;clip-rule:evenodd;fill:#E01E5A;}
	.st77{fill:none;stroke:#000000;stroke-width:2.25;stroke-linecap:round;stroke-linejoin:round;stroke-miterlimit:10;}
	.st78{fill:none;stroke:#000000;stroke-width:3;stroke-linecap:round;stroke-linejoin:round;stroke-miterlimit:10;}
	.st79{fill:none;stroke:#000000;stroke-width:1.875;stroke-linecap:round;stroke-linejoin:round;stroke-miterlimit:10;}
	.st80{fill:none;stroke:#000000;stroke-width:2.5;stroke-linecap:round;stroke-linejoin:round;stroke-miterlimit:10;}
</style>
<g id="AppScope.FULL_x5F_COLOR.LOCKUP">
	<g id="AppScope.MARK">
		<path class="st0" d="M35.998,18c0,2.233-0.409,4.419-1.215,6.498H23.759c-0.079,0-0.118-0.053-0.131-0.076
			c-0.013-0.023-0.039-0.083,0-0.151l9.367-16.224C34.96,11.002,35.998,14.437,35.998,18z M1.881,9.989l18.734,0
			c0.079,0,0.118-0.053,0.131-0.076c0.013-0.023,0.039-0.083,0-0.151l-5.512-9.547c-2.204,0.342-4.301,1.081-6.235,2.197
			C5.914,4.194,3.457,6.81,1.881,9.989z M19.12,35.964L9.753,19.739c-0.039-0.068-0.105-0.076-0.131-0.076
			c-0.026,0-0.091,0.007-0.131,0.076l-5.512,9.547c1.398,1.738,3.086,3.184,5.02,4.301C12.085,35.369,15.579,36.188,19.12,35.964z"
			/>
		<path class="st1" d="M26.998,2.413c1.934,1.117,3.622,2.563,5.02,4.301l-5.512,9.547c-0.039,0.068-0.105,0.076-0.131,0.076
			c-0.026,0-0.092-0.007-0.131-0.076L16.877,0.036C20.419-0.188,23.913,0.631,26.998,2.413z M3.003,27.953l9.367-16.224
			c0.039-0.068,0.013-0.129,0-0.151c-0.013-0.023-0.052-0.076-0.131-0.076H1.215C0.409,13.581,0,15.767,0,18
			C0,21.563,1.037,24.998,3.003,27.953z M34.116,26.011l-18.734,0c-0.079,0-0.118,0.053-0.131,0.076
			c-0.013,0.023-0.039,0.083,0,0.151l5.512,9.547c2.204-0.342,4.301-1.081,6.235-2.197C30.084,31.806,32.54,29.19,34.116,26.011z"/>
	</g>
	<g id="Appscope.Logotype_5_">
		<path id="AppScope.LOGO_8_" class="st2" d="M53.312,24.706l-1.643-4.199h-5.291l-1.625,4.199h-1.553l5.219-13.255h1.292
			l5.191,13.255H53.312z M51.191,19.126l-1.536-4.09c-0.197-0.518-0.403-1.153-0.614-1.905c-0.132,0.578-0.321,1.213-0.568,1.905
			l-1.553,4.09H51.191z M61.096,24.886c-0.644,0-1.233-0.119-1.765-0.356c-0.533-0.238-0.98-0.604-1.341-1.097h-0.108
			c0.072,0.578,0.108,1.126,0.108,1.643v4.072h-1.499V14.81h1.218l0.208,1.354h0.072c0.385-0.542,0.833-0.933,1.345-1.174
			c0.512-0.241,1.099-0.361,1.761-0.361c1.312,0,2.325,0.448,3.039,1.345c0.713,0.897,1.07,2.155,1.07,3.774
			c0,1.625-0.364,2.888-1.088,3.788C63.39,24.437,62.384,24.886,61.096,24.886z M60.879,15.902c-1.011,0-1.742,0.28-2.195,0.84
			c-0.45,0.56-0.683,1.451-0.695,2.673v0.334c0,1.391,0.231,2.386,0.695,2.984c0.464,0.6,1.208,0.899,2.231,0.899
			c0.855,0,1.524-0.346,2.009-1.038c0.484-0.692,0.727-1.646,0.727-2.862c0-1.234-0.243-2.181-0.727-2.839
			C62.439,16.231,61.758,15.902,60.879,15.902z M72.427,24.886c-0.644,0-1.233-0.119-1.765-0.356
			c-0.533-0.238-0.98-0.604-1.341-1.097h-0.108c0.072,0.578,0.108,1.126,0.108,1.643v4.072h-1.499V14.81h1.218l0.208,1.354h0.072
			c0.385-0.542,0.833-0.933,1.345-1.174c0.512-0.241,1.099-0.361,1.761-0.361c1.312,0,2.325,0.448,3.039,1.345
			c0.713,0.897,1.07,2.155,1.07,3.774c0,1.625-0.364,2.888-1.088,3.788C74.722,24.437,73.715,24.886,72.427,24.886z M72.21,15.902
			c-1.011,0-1.742,0.28-2.195,0.84c-0.45,0.56-0.683,1.451-0.695,2.673v0.334c0,1.391,0.231,2.386,0.695,2.984
			c0.464,0.6,1.208,0.899,2.231,0.899c0.855,0,1.524-0.346,2.009-1.038c0.484-0.692,0.727-1.646,0.727-2.862
			c0-1.234-0.243-2.181-0.727-2.839C73.771,16.231,73.089,15.902,72.21,15.902z M86.828,21.193c0,1.162-0.421,2.068-1.264,2.718
			s-1.986,0.975-3.431,0.975c-1.565,0-2.769-0.202-3.612-0.605v-1.481c0.542,0.229,1.132,0.409,1.77,0.542s1.27,0.199,1.896,0.199
			c1.023,0,1.794-0.194,2.312-0.582c0.518-0.389,0.777-0.929,0.777-1.621c0-0.457-0.091-0.832-0.276-1.124
			c-0.183-0.292-0.49-0.562-0.921-0.808c-0.43-0.247-1.085-0.527-1.964-0.84c-1.228-0.439-2.106-0.96-2.632-1.562
			c-0.527-0.602-0.79-1.388-0.79-2.357c0-1.017,0.382-1.827,1.146-2.429c0.764-0.602,1.776-0.903,3.034-0.903
			c1.312,0,2.519,0.241,3.621,0.722l-0.479,1.336c-1.09-0.457-2.149-0.686-3.178-0.686c-0.813,0-1.448,0.175-1.905,0.524
			c-0.459,0.349-0.686,0.834-0.686,1.454c0,0.457,0.083,0.833,0.253,1.124c0.167,0.292,0.453,0.56,0.852,0.803
			c0.401,0.244,1.012,0.513,1.837,0.808c1.384,0.494,2.338,1.023,2.858,1.589C86.568,19.556,86.828,20.29,86.828,21.193z
			 M93.257,24.886c-1.433,0-2.541-0.441-3.328-1.323c-0.785-0.881-1.179-2.129-1.179-3.742c0-1.655,0.4-2.935,1.197-3.837
			c0.798-0.903,1.933-1.354,3.409-1.354c0.474,0,0.95,0.051,1.425,0.153s0.85,0.223,1.12,0.361l-0.46,1.273
			c-0.331-0.132-0.692-0.242-1.084-0.33c-0.391-0.087-0.738-0.131-1.038-0.131c-2.012,0-3.017,1.282-3.017,3.847
			c0,1.216,0.246,2.149,0.737,2.799c0.49,0.65,1.217,0.975,2.18,0.975c0.825,0,1.67-0.178,2.537-0.533v1.327
			C95.096,24.715,94.262,24.886,93.257,24.886z M106.647,19.749c0,1.613-0.406,2.873-1.22,3.778
			c-0.811,0.907-1.935,1.359-3.367,1.359c-0.885,0-1.67-0.208-2.356-0.623s-1.217-1.011-1.589-1.788
			c-0.374-0.777-0.561-1.685-0.561-2.727c0-1.613,0.403-2.87,1.211-3.77c0.805-0.899,1.925-1.35,3.359-1.35
			c1.383,0,2.484,0.46,3.3,1.381C106.239,16.931,106.647,18.178,106.647,19.749z M99.107,19.749c0,1.264,0.253,2.227,0.758,2.889
			c0.506,0.662,1.25,0.993,2.231,0.993c0.981,0,1.726-0.329,2.234-0.989c0.509-0.659,0.763-1.623,0.763-2.894
			c0-1.258-0.254-2.213-0.763-2.867c-0.508-0.653-1.259-0.979-2.253-0.979c-0.981,0-1.722,0.322-2.221,0.966
			S99.107,18.472,99.107,19.749z M113.88,24.886c-0.644,0-1.233-0.119-1.765-0.356c-0.533-0.238-0.98-0.604-1.341-1.097h-0.108
			c0.072,0.578,0.108,1.126,0.108,1.643v4.072h-1.499V14.81h1.218l0.208,1.354h0.072c0.385-0.542,0.833-0.933,1.345-1.174
			c0.512-0.241,1.099-0.361,1.761-0.361c1.312,0,2.325,0.448,3.039,1.345c0.713,0.897,1.07,2.155,1.07,3.774
			c0,1.625-0.364,2.888-1.088,3.788C116.175,24.437,115.168,24.886,113.88,24.886z M113.664,15.902c-1.011,0-1.742,0.28-2.195,0.84
			c-0.45,0.56-0.683,1.451-0.695,2.673v0.334c0,1.391,0.231,2.386,0.695,2.984c0.464,0.6,1.208,0.899,2.231,0.899
			c0.855,0,1.524-0.346,2.009-1.038c0.484-0.692,0.727-1.646,0.727-2.862c0-1.234-0.243-2.181-0.727-2.839
			C115.224,16.231,114.542,15.902,113.664,15.902z M124.787,24.886c-1.462,0-2.616-0.445-3.462-1.336
			c-0.845-0.891-1.269-2.128-1.269-3.711c0-1.595,0.394-2.862,1.179-3.801c0.786-0.939,1.841-1.409,3.165-1.409
			c1.24,0,2.221,0.408,2.944,1.223c0.722,0.816,1.084,1.892,1.084,3.228v0.948h-6.818c0.03,1.162,0.324,2.044,0.881,2.646
			c0.556,0.602,1.341,0.903,2.352,0.903c1.064,0,2.118-0.223,3.159-0.668v1.336c-0.53,0.229-1.031,0.393-1.502,0.492
			C126.025,24.837,125.456,24.886,124.787,24.886z M124.381,15.884c-0.795,0-1.428,0.259-1.901,0.777
			c-0.472,0.518-0.751,1.234-0.836,2.149h5.174c0-0.945-0.211-1.669-0.632-2.171S125.163,15.884,124.381,15.884z"/>
	</g>
</g>
<g>
	<path class="st2" d="M130.75,12.967c0.188-0.064,0.311-0.207,0.311-0.444c0-0.347-0.249-0.461-0.572-0.461h-0.522v1.553h0.275
		v-0.608h0.235l0.335,0.608h0.309L130.75,12.967z M130.461,12.789h-0.218v-0.506h0.218c0.214,0,0.328,0.062,0.328,0.24
		C130.788,12.698,130.674,12.789,130.461,12.789z"/>
	<path class="st2" d="M130.5,11.315c-0.827,0-1.5,0.673-1.5,1.5s0.673,1.5,1.5,1.5s1.5-0.673,1.5-1.5S131.327,11.315,130.5,11.315z
		 M130.5,14.065c-0.689,0-1.25-0.561-1.25-1.25s0.561-1.25,1.25-1.25s1.25,0.561,1.25,1.25S131.189,14.065,130.5,14.065z"/>
</g>
</svg>
